<?xml version="1.0" encoding="UTF-8" standalone="no"?>
<!DOCTYPE svg PUBLIC "-//W3C//DTD SVG 1.1//EN"
 "http://www.w3.org/Graphics/SVG/1.1/DTD/svg11.dtd">
<!-- Generated by graphviz version 2.49.3 (20211023.0002)
 -->
<!-- Title: finite_state_machine Pages: 1 -->
<svg width="299pt" height="239pt"
 viewBox="0.00 0.00 299.00 239.00" xmlns="http://www.w3.org/2000/svg" xmlns:xlink="http://www.w3.org/1999/xlink">
<g id="graph0" class="graph" transform="scale(1 1) rotate(0) translate(4 235)">
<title>finite_state_machine</title>
<polygon fill="white" stroke="transparent" points="-4,4 -4,-235 295,-235 295,4 -4,4"/>
<!-- abc: -->
<g id="node1" class="node">
<title>abc:</title>
<text text-anchor="middle" x="27" y="-59.9" font-family="Arial" font-size="12.00">abc:</text>
</g>
<!-- START -->
<g id="node2" class="node">
<title>START</title>
<ellipse fill="#e5e5e5" stroke="black" cx="27" cy="-101" rx="1.8" ry="1.8"/>
</g>
<!-- S -->
<g id="node4" class="node">
<title>S</title>
<ellipse fill="#e5e5e5" stroke="black" cx="109" cy="-101" rx="18" ry="18"/>
<text text-anchor="middle" x="109" y="-98.5" font-family="Arial" font-size="10.00">S</text>
</g>
<!-- START&#45;&gt;S -->
<g id="edge1" class="edge">
<title>START&#45;&gt;S</title>
<path fill="none" stroke="black" d="M28.9,-101C33.99,-101 59.68,-101 80.43,-101"/>
<polygon fill="black" stroke="black" points="80.69,-104.5 90.69,-101 80.69,-97.5 80.69,-104.5"/>
</g>
<!-- R -->
<g id="node3" class="node">
<title>R</title>
<ellipse fill="#e5e5e5" stroke="black" cx="269" cy="-101" rx="18" ry="18"/>
<ellipse fill="none" stroke="black" cx="269" cy="-101" rx="22" ry="22"/>
<text text-anchor="middle" x="269" y="-98.5" font-family="Arial" font-size="10.00">R</text>
</g>
<!-- S&#45;&gt;S -->
<g id="edge5" class="edge">
<title>S&#45;&gt;S</title>
<path fill="none" stroke="black" d="M102.62,-118.04C101.32,-127.86 103.45,-137 109,-137 112.47,-137 114.6,-133.43 115.4,-128.35"/>
<polygon fill="black" stroke="black" points="118.9,-128.03 115.38,-118.04 111.9,-128.04 118.9,-128.03"/>
<text text-anchor="middle" x="109" y="-140" font-family="Arial" font-size="10.00">a, b, c</text>
</g>
<!-- A -->
<g id="node5" class="node">
<title>A</title>
<ellipse fill="#e5e5e5" stroke="black" cx="187" cy="-184" rx="18" ry="18"/>
<text text-anchor="middle" x="187" y="-181.5" font-family="Arial" font-size="10.00">A</text>
</g>
<!-- S&#45;&gt;A -->
<g id="edge2" class="edge">
<title>S&#45;&gt;A</title>
<path fill="none" stroke="black" d="M121.88,-113.97C134.03,-127.25 153.11,-148.08 167.3,-163.57"/>
<polygon fill="black" stroke="black" points="164.87,-166.11 174.21,-171.12 170.04,-161.38 164.87,-166.11"/>
<text text-anchor="middle" x="148" y="-147" font-family="Arial" font-size="10.00">a</text>
</g>
<!-- B -->
<g id="node6" class="node">
<title>B</title>
<ellipse fill="#e5e5e5" stroke="black" cx="187" cy="-101" rx="18" ry="18"/>
<text text-anchor="middle" x="187" y="-98.5" font-family="Arial" font-size="10.00">B</text>
</g>
<!-- S&#45;&gt;B -->
<g id="edge3" class="edge">
<title>S&#45;&gt;B</title>
<path fill="none" stroke="black" d="M127.25,-101C136.48,-101 148.07,-101 158.51,-101"/>
<polygon fill="black" stroke="black" points="158.82,-104.5 168.82,-101 158.82,-97.5 158.82,-104.5"/>
<text text-anchor="middle" x="148" y="-104" font-family="Arial" font-size="10.00">b</text>
</g>
<!-- C -->
<g id="node7" class="node">
<title>C</title>
<ellipse fill="#e5e5e5" stroke="black" cx="187" cy="-18" rx="18" ry="18"/>
<text text-anchor="middle" x="187" y="-15.5" font-family="Arial" font-size="10.00">C</text>
</g>
<!-- S&#45;&gt;C -->
<g id="edge4" class="edge">
<title>S&#45;&gt;C</title>
<path fill="none" stroke="black" d="M121.88,-88.03C134.03,-74.75 153.11,-53.92 167.3,-38.43"/>
<polygon fill="black" stroke="black" points="170.04,-40.62 174.21,-30.88 164.87,-35.89 170.04,-40.62"/>
<text text-anchor="middle" x="148" y="-64" font-family="Arial" font-size="10.00">c</text>
</g>
<!-- A&#45;&gt;R -->
<g id="edge7" class="edge">
<title>A&#45;&gt;R</title>
<path fill="none" stroke="black" d="M200.15,-171.39C212.21,-158.88 230.98,-139.41 245.72,-124.12"/>
<polygon fill="black" stroke="black" points="248.58,-126.19 253,-116.56 243.54,-121.33 248.58,-126.19"/>
<text text-anchor="middle" x="226" y="-150" font-family="Arial" font-size="10.00">a</text>
</g>
<!-- A&#45;&gt;A -->
<g id="edge6" class="edge">
<title>A&#45;&gt;A</title>
<path fill="none" stroke="black" d="M180.27,-201.04C178.89,-210.86 181.14,-220 187,-220 190.66,-220 192.92,-216.43 193.75,-211.35"/>
<polygon fill="black" stroke="black" points="197.25,-211.03 193.73,-201.04 190.25,-211.04 197.25,-211.03"/>
<text text-anchor="middle" x="187" y="-223" font-family="Arial" font-size="10.00">a, b, c</text>
</g>
<!-- B&#45;&gt;R -->
<g id="edge9" class="edge">
<title>B&#45;&gt;R</title>
<path fill="none" stroke="black" d="M205.36,-101C214.53,-101 226.06,-101 236.72,-101"/>
<polygon fill="black" stroke="black" points="236.98,-104.5 246.98,-101 236.98,-97.5 236.98,-104.5"/>
<text text-anchor="middle" x="226" y="-104" font-family="Arial" font-size="10.00">b</text>
</g>
<!-- B&#45;&gt;B -->
<g id="edge8" class="edge">
<title>B&#45;&gt;B</title>
<path fill="none" stroke="black" d="M180.27,-118.04C178.89,-127.86 181.14,-137 187,-137 190.66,-137 192.92,-133.43 193.75,-128.35"/>
<polygon fill="black" stroke="black" points="197.25,-128.03 193.73,-118.04 190.25,-128.04 197.25,-128.03"/>
<text text-anchor="middle" x="187" y="-140" font-family="Arial" font-size="10.00">a, b, c</text>
</g>
<!-- C&#45;&gt;R -->
<g id="edge11" class="edge">
<title>C&#45;&gt;R</title>
<path fill="none" stroke="black" d="M200.15,-30.61C212.21,-43.12 230.98,-62.59 245.72,-77.88"/>
<polygon fill="black" stroke="black" points="243.54,-80.67 253,-85.44 248.58,-75.81 243.54,-80.67"/>
<text text-anchor="middle" x="226" y="-62" font-family="Arial" font-size="10.00">c</text>
</g>
<!-- C&#45;&gt;C -->
<g id="edge10" class="edge">
<title>C&#45;&gt;C</title>
<path fill="none" stroke="black" d="M180.27,-35.04C178.89,-44.86 181.14,-54 187,-54 190.66,-54 192.92,-50.43 193.75,-45.35"/>
<polygon fill="black" stroke="black" points="197.25,-45.03 193.73,-35.04 190.25,-45.04 197.25,-45.03"/>
<text text-anchor="middle" x="187" y="-57" font-family="Arial" font-size="10.00">a, b, c</text>
</g>
</g>
</svg>
