<?xml version="1.0" encoding="UTF-8" standalone="no"?>
<!DOCTYPE svg PUBLIC "-//W3C//DTD SVG 1.1//EN"
 "http://www.w3.org/Graphics/SVG/1.1/DTD/svg11.dtd">
<!-- Generated by graphviz version 2.49.3 (20211023.0002)
 -->
<!-- Title: finite_state_machine Pages: 1 -->
<svg width="908pt" height="510pt"
 viewBox="0.00 0.00 908.49 510.31" xmlns="http://www.w3.org/2000/svg" xmlns:xlink="http://www.w3.org/1999/xlink">
<g id="graph0" class="graph" transform="scale(1 1) rotate(0) translate(4 506.31)">
<title>finite_state_machine</title>
<polygon fill="white" stroke="transparent" points="-4,4 -4,-506.31 904.49,-506.31 904.49,4 -4,4"/>
<!-- abcDfaMinimal: -->
<g id="node1" class="node">
<title>abcDfaMinimal:</title>
<text text-anchor="middle" x="49" y="-194.21" font-family="Arial" font-size="12.00">abcDfaMinimal:</text>
</g>
<!-- START -->
<g id="node2" class="node">
<title>START</title>
<ellipse fill="#e5e5e5" stroke="black" cx="49" cy="-235.31" rx="1.8" ry="1.8"/>
</g>
<!-- S -->
<g id="node10" class="node">
<title>S</title>
<ellipse fill="#e5e5e5" stroke="black" cx="162" cy="-235.31" rx="27" ry="18"/>
<text text-anchor="middle" x="162" y="-232.81" font-family="Arial" font-size="10.00">S</text>
</g>
<!-- START&#45;&gt;S -->
<g id="edge1" class="edge">
<title>START&#45;&gt;S</title>
<path fill="none" stroke="black" d="M51.25,-235.31C58.46,-235.31 95.53,-235.31 124.62,-235.31"/>
<polygon fill="black" stroke="black" points="124.91,-238.81 134.91,-235.31 124.91,-231.81 124.91,-238.81"/>
</g>
<!-- A+B+C+R+S -->
<g id="node3" class="node">
<title>A+B+C+R+S</title>
<ellipse fill="#e5e5e5" stroke="black" cx="852.93" cy="-259.31" rx="43.62" ry="18"/>
<ellipse fill="none" stroke="black" cx="852.93" cy="-259.31" rx="47.62" ry="22"/>
<text text-anchor="middle" x="852.93" y="-256.81" font-family="Arial" font-size="10.00">A+B+C+R+S</text>
</g>
<!-- A+B+C+R+S&#45;&gt;A+B+C+R+S -->
<g id="edge36" class="edge">
<title>A+B+C+R+S&#45;&gt;A+B+C+R+S</title>
<path fill="none" stroke="black" d="M838.66,-280.3C836.9,-290.4 841.65,-299.31 852.93,-299.31 860.15,-299.31 864.7,-295.65 866.57,-290.37"/>
<polygon fill="black" stroke="black" points="870.07,-290.5 867.2,-280.3 863.08,-290.06 870.07,-290.5"/>
<text text-anchor="middle" x="852.93" y="-302.31" font-family="Arial" font-size="10.00">a, b, c</text>
</g>
<!-- A+B+R+S -->
<g id="node4" class="node">
<title>A+B+R+S</title>
<ellipse fill="#e5e5e5" stroke="black" cx="585.88" cy="-379.31" rx="36.49" ry="18"/>
<ellipse fill="none" stroke="black" cx="585.88" cy="-379.31" rx="40.49" ry="22"/>
<text text-anchor="middle" x="585.88" y="-376.81" font-family="Arial" font-size="10.00">A+B+R+S</text>
</g>
<!-- A+B+R+S&#45;&gt;A+B+R+S -->
<g id="edge30" class="edge">
<title>A+B+R+S&#45;&gt;A+B+R+S</title>
<path fill="none" stroke="black" d="M574.85,-400.71C573.64,-410.63 577.32,-419.31 585.88,-419.31 591.22,-419.31 594.66,-415.92 596.2,-410.96"/>
<polygon fill="black" stroke="black" points="599.71,-410.92 596.9,-400.71 592.72,-410.44 599.71,-410.92"/>
<text text-anchor="middle" x="585.88" y="-422.31" font-family="Arial" font-size="10.00">a, b</text>
</g>
<!-- A+B+C+S -->
<g id="node17" class="node">
<title>A+B+C+S</title>
<ellipse fill="#e5e5e5" stroke="black" cx="704.87" cy="-259.31" rx="36.49" ry="18"/>
<text text-anchor="middle" x="704.87" y="-256.81" font-family="Arial" font-size="10.00">A+B+C+S</text>
</g>
<!-- A+B+R+S&#45;&gt;A+B+C+S -->
<g id="edge29" class="edge">
<title>A+B+R+S&#45;&gt;A+B+C+S</title>
<path fill="none" stroke="black" d="M617.3,-365.36C628.5,-359.3 640.78,-351.48 650.37,-342.31 667.31,-326.11 681.41,-303.55 690.88,-286.04"/>
<polygon fill="black" stroke="black" points="694.12,-287.38 695.65,-276.9 687.92,-284.14 694.12,-287.38"/>
<text text-anchor="middle" x="647.37" y="-351.31" font-family="Arial" font-size="10.00">c</text>
</g>
<!-- A+C+R+S -->
<g id="node5" class="node">
<title>A+C+R+S</title>
<ellipse fill="#e5e5e5" stroke="black" cx="585.88" cy="-194.31" rx="36.49" ry="18"/>
<ellipse fill="none" stroke="black" cx="585.88" cy="-194.31" rx="40.49" ry="22"/>
<text text-anchor="middle" x="585.88" y="-191.81" font-family="Arial" font-size="10.00">A+C+R+S</text>
</g>
<!-- A+C+R+S&#45;&gt;A+C+R+S -->
<g id="edge33" class="edge">
<title>A+C+R+S&#45;&gt;A+C+R+S</title>
<path fill="none" stroke="black" d="M574.85,-215.71C573.64,-225.63 577.32,-234.31 585.88,-234.31 591.22,-234.31 594.66,-230.92 596.2,-225.96"/>
<polygon fill="black" stroke="black" points="599.71,-225.92 596.9,-215.71 592.72,-225.44 599.71,-225.92"/>
<text text-anchor="middle" x="585.88" y="-237.31" font-family="Arial" font-size="10.00">a, c</text>
</g>
<!-- A+C+R+S&#45;&gt;A+B+C+S -->
<g id="edge32" class="edge">
<title>A+C+R+S&#45;&gt;A+B+C+S</title>
<path fill="none" stroke="black" d="M614.9,-209.88C631.82,-219.28 653.47,-231.31 671.17,-241.14"/>
<polygon fill="black" stroke="black" points="669.58,-244.26 680.03,-246.06 672.98,-238.14 669.58,-244.26"/>
<text text-anchor="middle" x="647.37" y="-232.31" font-family="Arial" font-size="10.00">b</text>
</g>
<!-- A+R+S -->
<g id="node6" class="node">
<title>A+R+S</title>
<ellipse fill="#e5e5e5" stroke="black" cx="359.84" cy="-420.31" rx="28.71" ry="18"/>
<ellipse fill="none" stroke="black" cx="359.84" cy="-420.31" rx="32.69" ry="22"/>
<text text-anchor="middle" x="359.84" y="-417.81" font-family="Arial" font-size="10.00">A+R+S</text>
</g>
<!-- A+R+S&#45;&gt;A+R+S -->
<g id="edge16" class="edge">
<title>A+R+S&#45;&gt;A+R+S</title>
<path fill="none" stroke="black" d="M350.29,-441.71C349.24,-451.63 352.43,-460.31 359.84,-460.31 364.48,-460.31 367.46,-456.92 368.79,-451.96"/>
<polygon fill="black" stroke="black" points="372.3,-451.9 369.4,-441.71 365.31,-451.48 372.3,-451.9"/>
<text text-anchor="middle" x="359.84" y="-463.31" font-family="Arial" font-size="10.00">a</text>
</g>
<!-- A+B+S -->
<g id="node14" class="node">
<title>A+B+S</title>
<ellipse fill="#e5e5e5" stroke="black" cx="463.53" cy="-349.31" rx="28.69" ry="18"/>
<text text-anchor="middle" x="463.53" y="-346.81" font-family="Arial" font-size="10.00">A+B+S</text>
</g>
<!-- A+R+S&#45;&gt;A+B+S -->
<g id="edge14" class="edge">
<title>A+R+S&#45;&gt;A+B+S</title>
<path fill="none" stroke="black" d="M392.75,-421.48C400.99,-420.58 409.55,-418.51 416.69,-414.31 431.68,-405.49 443.01,-389.62 450.66,-375.76"/>
<polygon fill="black" stroke="black" points="453.91,-377.1 455.37,-366.61 447.69,-373.9 453.91,-377.1"/>
<text text-anchor="middle" x="413.69" y="-420.31" font-family="Arial" font-size="10.00">b</text>
</g>
<!-- A+C+S -->
<g id="node15" class="node">
<title>A+C+S</title>
<ellipse fill="#e5e5e5" stroke="black" cx="463.53" cy="-226.31" rx="28.69" ry="18"/>
<text text-anchor="middle" x="463.53" y="-223.81" font-family="Arial" font-size="10.00">A+C+S</text>
</g>
<!-- A+R+S&#45;&gt;A+C+S -->
<g id="edge15" class="edge">
<title>A+R+S&#45;&gt;A+C+S</title>
<path fill="none" stroke="black" d="M386.33,-407.08C397.07,-400.36 408.87,-391.28 416.69,-380.31 418.57,-377.67 441.94,-297.5 454.56,-253.9"/>
<polygon fill="black" stroke="black" points="457.96,-254.76 457.38,-244.18 451.23,-252.82 457.96,-254.76"/>
<text text-anchor="middle" x="413.69" y="-391.31" font-family="Arial" font-size="10.00">c</text>
</g>
<!-- B+C+R+S -->
<g id="node7" class="node">
<title>B+C+R+S</title>
<ellipse fill="#e5e5e5" stroke="black" cx="585.88" cy="-103.31" rx="36.49" ry="18"/>
<ellipse fill="none" stroke="black" cx="585.88" cy="-103.31" rx="40.49" ry="22"/>
<text text-anchor="middle" x="585.88" y="-100.81" font-family="Arial" font-size="10.00">B+C+R+S</text>
</g>
<!-- B+C+R+S&#45;&gt;B+C+R+S -->
<g id="edge35" class="edge">
<title>B+C+R+S&#45;&gt;B+C+R+S</title>
<path fill="none" stroke="black" d="M574.85,-124.71C573.64,-134.63 577.32,-143.31 585.88,-143.31 591.22,-143.31 594.66,-139.92 596.2,-134.96"/>
<polygon fill="black" stroke="black" points="599.71,-134.92 596.9,-124.71 592.72,-134.44 599.71,-134.92"/>
<text text-anchor="middle" x="585.88" y="-146.31" font-family="Arial" font-size="10.00">b, c</text>
</g>
<!-- B+C+R+S&#45;&gt;A+B+C+S -->
<g id="edge34" class="edge">
<title>B+C+R+S&#45;&gt;A+B+C+S</title>
<path fill="none" stroke="black" d="M602.17,-123.7C623.46,-152.09 661.99,-203.47 685.03,-234.18"/>
<polygon fill="black" stroke="black" points="682.28,-236.36 691.08,-242.26 687.88,-232.16 682.28,-236.36"/>
<text text-anchor="middle" x="647.37" y="-189.31" font-family="Arial" font-size="10.00">a</text>
</g>
<!-- B+R+S -->
<g id="node8" class="node">
<title>B+R+S</title>
<ellipse fill="#e5e5e5" stroke="black" cx="359.84" cy="-235.31" rx="28.71" ry="18"/>
<ellipse fill="none" stroke="black" cx="359.84" cy="-235.31" rx="32.69" ry="22"/>
<text text-anchor="middle" x="359.84" y="-232.81" font-family="Arial" font-size="10.00">B+R+S</text>
</g>
<!-- B+R+S&#45;&gt;B+R+S -->
<g id="edge23" class="edge">
<title>B+R+S&#45;&gt;B+R+S</title>
<path fill="none" stroke="black" d="M350.29,-256.71C349.24,-266.63 352.43,-275.31 359.84,-275.31 364.48,-275.31 367.46,-271.92 368.79,-266.96"/>
<polygon fill="black" stroke="black" points="372.3,-266.9 369.4,-256.71 365.31,-266.48 372.3,-266.9"/>
<text text-anchor="middle" x="359.84" y="-278.31" font-family="Arial" font-size="10.00">b</text>
</g>
<!-- B+R+S&#45;&gt;A+B+S -->
<g id="edge21" class="edge">
<title>B+R+S&#45;&gt;A+B+S</title>
<path fill="none" stroke="black" d="M377.76,-253.98C388.86,-266.26 403.68,-282.71 416.69,-297.31 424.9,-306.53 433.9,-316.71 441.73,-325.6"/>
<polygon fill="black" stroke="black" points="439.3,-328.14 448.53,-333.34 444.56,-323.52 439.3,-328.14"/>
<text text-anchor="middle" x="413.69" y="-300.31" font-family="Arial" font-size="10.00">a</text>
</g>
<!-- B+C+S -->
<g id="node16" class="node">
<title>B+C+S</title>
<ellipse fill="#e5e5e5" stroke="black" cx="463.53" cy="-54.31" rx="28.69" ry="18"/>
<text text-anchor="middle" x="463.53" y="-51.81" font-family="Arial" font-size="10.00">B+C+S</text>
</g>
<!-- B+R+S&#45;&gt;B+C+S -->
<g id="edge22" class="edge">
<title>B+R+S&#45;&gt;B+C+S</title>
<path fill="none" stroke="black" d="M378.74,-217.05C383.59,-211.59 388.62,-205.42 392.69,-199.31 418.26,-160.84 439.93,-111.59 452.07,-81.52"/>
<polygon fill="black" stroke="black" points="455.38,-82.69 455.82,-72.1 448.87,-80.1 455.38,-82.69"/>
<text text-anchor="middle" x="413.69" y="-172.31" font-family="Arial" font-size="10.00">c</text>
</g>
<!-- C+R+S -->
<g id="node9" class="node">
<title>C+R+S</title>
<ellipse fill="#e5e5e5" stroke="black" cx="359.84" cy="-50.31" rx="28.71" ry="18"/>
<ellipse fill="none" stroke="black" cx="359.84" cy="-50.31" rx="32.69" ry="22"/>
<text text-anchor="middle" x="359.84" y="-47.81" font-family="Arial" font-size="10.00">C+R+S</text>
</g>
<!-- C+R+S&#45;&gt;C+R+S -->
<g id="edge28" class="edge">
<title>C+R+S&#45;&gt;C+R+S</title>
<path fill="none" stroke="black" d="M350.29,-71.71C349.24,-81.63 352.43,-90.31 359.84,-90.31 364.48,-90.31 367.46,-86.92 368.79,-81.96"/>
<polygon fill="black" stroke="black" points="372.3,-81.9 369.4,-71.71 365.31,-81.48 372.3,-81.9"/>
<text text-anchor="middle" x="359.84" y="-93.31" font-family="Arial" font-size="10.00">c</text>
</g>
<!-- C+R+S&#45;&gt;A+C+S -->
<g id="edge26" class="edge">
<title>C+R+S&#45;&gt;A+C+S</title>
<path fill="none" stroke="black" d="M374.49,-70.36C386.15,-87.78 403.15,-113.83 416.69,-137.31 428.56,-157.89 440.82,-181.86 449.68,-199.74"/>
<polygon fill="black" stroke="black" points="446.67,-201.56 454.22,-208.99 452.95,-198.47 446.67,-201.56"/>
<text text-anchor="middle" x="413.69" y="-140.31" font-family="Arial" font-size="10.00">a</text>
</g>
<!-- C+R+S&#45;&gt;B+C+S -->
<g id="edge27" class="edge">
<title>C+R+S&#45;&gt;B+C+S</title>
<path fill="none" stroke="black" d="M392.74,-51.56C402.79,-51.96 413.99,-52.4 424.42,-52.81"/>
<polygon fill="black" stroke="black" points="424.4,-56.31 434.53,-53.21 424.68,-49.32 424.4,-56.31"/>
<text text-anchor="middle" x="413.69" y="-56.31" font-family="Arial" font-size="10.00">b</text>
</g>
<!-- A+S -->
<g id="node11" class="node">
<title>A+S</title>
<ellipse fill="#e5e5e5" stroke="black" cx="258" cy="-390.31" rx="27" ry="18"/>
<text text-anchor="middle" x="258" y="-387.81" font-family="Arial" font-size="10.00">A+S</text>
</g>
<!-- S&#45;&gt;A+S -->
<g id="edge2" class="edge">
<title>S&#45;&gt;A+S</title>
<path fill="none" stroke="black" d="M173.06,-251.9C189.53,-279.05 222.34,-333.15 241.7,-365.08"/>
<polygon fill="black" stroke="black" points="238.83,-367.1 247.01,-373.84 244.82,-363.47 238.83,-367.1"/>
<text text-anchor="middle" x="210" y="-321.31" font-family="Arial" font-size="10.00">a</text>
</g>
<!-- B+S -->
<g id="node12" class="node">
<title>B+S</title>
<ellipse fill="#e5e5e5" stroke="black" cx="258" cy="-235.31" rx="27" ry="18"/>
<text text-anchor="middle" x="258" y="-232.81" font-family="Arial" font-size="10.00">B+S</text>
</g>
<!-- S&#45;&gt;B+S -->
<g id="edge3" class="edge">
<title>S&#45;&gt;B+S</title>
<path fill="none" stroke="black" d="M189.18,-235.31C198.96,-235.31 210.25,-235.31 220.77,-235.31"/>
<polygon fill="black" stroke="black" points="220.96,-238.81 230.96,-235.31 220.96,-231.81 220.96,-238.81"/>
<text text-anchor="middle" x="210" y="-238.31" font-family="Arial" font-size="10.00">b</text>
</g>
<!-- C+S -->
<g id="node13" class="node">
<title>C+S</title>
<ellipse fill="#e5e5e5" stroke="black" cx="258" cy="-139.31" rx="27" ry="18"/>
<text text-anchor="middle" x="258" y="-136.81" font-family="Arial" font-size="10.00">C+S</text>
</g>
<!-- S&#45;&gt;C+S -->
<g id="edge4" class="edge">
<title>S&#45;&gt;C+S</title>
<path fill="none" stroke="black" d="M177.69,-220.31C193.14,-204.53 217.62,-179.52 235.3,-161.47"/>
<polygon fill="black" stroke="black" points="237.92,-163.8 242.42,-154.2 232.92,-158.9 237.92,-163.8"/>
<text text-anchor="middle" x="210" y="-193.31" font-family="Arial" font-size="10.00">c</text>
</g>
<!-- A+S&#45;&gt;A+R+S -->
<g id="edge7" class="edge">
<title>A+S&#45;&gt;A+R+S</title>
<path fill="none" stroke="black" d="M282.92,-397.49C293.93,-400.8 307.29,-404.82 319.72,-408.55"/>
<polygon fill="black" stroke="black" points="318.83,-411.94 329.42,-411.47 320.85,-405.24 318.83,-411.94"/>
<text text-anchor="middle" x="306" y="-408.31" font-family="Arial" font-size="10.00">a</text>
</g>
<!-- A+S&#45;&gt;A+B+S -->
<g id="edge5" class="edge">
<title>A+S&#45;&gt;A+B+S</title>
<path fill="none" stroke="black" d="M266.24,-407.79C276.28,-429.42 296.67,-465.21 327,-480.31 353.14,-493.32 367.66,-495.33 392.69,-480.31 429.82,-458.03 448.3,-408.57 456.61,-377.2"/>
<polygon fill="black" stroke="black" points="460.05,-377.87 459.05,-367.32 453.26,-376.19 460.05,-377.87"/>
<text text-anchor="middle" x="359.84" y="-494.31" font-family="Arial" font-size="10.00">b</text>
</g>
<!-- A+S&#45;&gt;A+C+S -->
<g id="edge6" class="edge">
<title>A+S&#45;&gt;A+C+S</title>
<path fill="none" stroke="black" d="M284.09,-385.62C312.5,-379.38 359.18,-366.25 392.69,-342.31 423.39,-320.37 443.05,-280.35 453.44,-253.54"/>
<polygon fill="black" stroke="black" points="456.79,-254.57 456.98,-243.97 450.23,-252.14 456.79,-254.57"/>
<text text-anchor="middle" x="359.84" y="-377.31" font-family="Arial" font-size="10.00">c</text>
</g>
<!-- B+S&#45;&gt;B+R+S -->
<g id="edge10" class="edge">
<title>B+S&#45;&gt;B+R+S</title>
<path fill="none" stroke="black" d="M285.23,-235.31C294.87,-235.31 306.03,-235.31 316.71,-235.31"/>
<polygon fill="black" stroke="black" points="316.73,-238.81 326.73,-235.31 316.73,-231.81 316.73,-238.81"/>
<text text-anchor="middle" x="306" y="-238.31" font-family="Arial" font-size="10.00">b</text>
</g>
<!-- B+S&#45;&gt;A+B+S -->
<g id="edge8" class="edge">
<title>B+S&#45;&gt;A+B+S</title>
<path fill="none" stroke="black" d="M273.2,-250.51C286.2,-263.73 306.48,-282.7 327,-295.31 358.81,-314.86 398.92,-329.8 427.23,-338.95"/>
<polygon fill="black" stroke="black" points="426.5,-342.39 437.08,-342.06 428.6,-335.72 426.5,-342.39"/>
<text text-anchor="middle" x="359.84" y="-330.31" font-family="Arial" font-size="10.00">a</text>
</g>
<!-- B+S&#45;&gt;B+C+S -->
<g id="edge9" class="edge">
<title>B+S&#45;&gt;B+C+S</title>
<path fill="none" stroke="black" d="M268.34,-218.63C279.79,-199.66 300.92,-169.01 327,-151.31 361.55,-127.85 383.28,-148.36 416.69,-123.31 431.32,-112.34 442.73,-95.24 450.5,-80.81"/>
<polygon fill="black" stroke="black" points="453.67,-82.31 455.08,-71.81 447.43,-79.13 453.67,-82.31"/>
<text text-anchor="middle" x="359.84" y="-154.31" font-family="Arial" font-size="10.00">c</text>
</g>
<!-- C+S&#45;&gt;C+R+S -->
<g id="edge13" class="edge">
<title>C+S&#45;&gt;C+R+S</title>
<path fill="none" stroke="black" d="M275.04,-125.01C290.24,-111.46 313.38,-90.83 331.49,-74.69"/>
<polygon fill="black" stroke="black" points="334.28,-76.89 339.42,-67.62 329.62,-71.67 334.28,-76.89"/>
<text text-anchor="middle" x="306" y="-101.31" font-family="Arial" font-size="10.00">c</text>
</g>
<!-- C+S&#45;&gt;A+C+S -->
<g id="edge11" class="edge">
<title>C+S&#45;&gt;A+C+S</title>
<path fill="none" stroke="black" d="M281.87,-148.09C308.63,-158.46 354.17,-176.44 392.69,-193.31 405.39,-198.87 419.22,-205.32 431.2,-211.03"/>
<polygon fill="black" stroke="black" points="429.82,-214.25 440.35,-215.43 432.85,-207.94 429.82,-214.25"/>
<text text-anchor="middle" x="359.84" y="-196.31" font-family="Arial" font-size="10.00">a</text>
</g>
<!-- C+S&#45;&gt;B+C+S -->
<g id="edge12" class="edge">
<title>C+S&#45;&gt;B+C+S</title>
<path fill="none" stroke="black" d="M262.23,-121.31C268.64,-91.62 286.05,-33.19 327,-8.31 362.41,13.21 409.19,-12.82 437.51,-33.59"/>
<polygon fill="black" stroke="black" points="435.6,-36.53 445.67,-39.8 439.84,-30.96 435.6,-36.53"/>
<text text-anchor="middle" x="359.84" y="-11.31" font-family="Arial" font-size="10.00">b</text>
</g>
<!-- A+B+S&#45;&gt;A+B+R+S -->
<g id="edge18" class="edge">
<title>A+B+S&#45;&gt;A+B+R+S</title>
<path fill="none" stroke="black" d="M490.65,-355.82C504.73,-359.33 522.52,-363.76 538.84,-367.83"/>
<polygon fill="black" stroke="black" points="538.22,-371.28 548.77,-370.31 539.91,-364.49 538.22,-371.28"/>
<text text-anchor="middle" x="518.88" y="-367.31" font-family="Arial" font-size="10.00">a, b</text>
</g>
<!-- A+B+S&#45;&gt;A+B+C+S -->
<g id="edge17" class="edge">
<title>A+B+S&#45;&gt;A+B+C+S</title>
<path fill="none" stroke="black" d="M488.8,-340.18C530.47,-324.51 615.93,-292.38 665.66,-273.68"/>
<polygon fill="black" stroke="black" points="666.98,-276.92 675.11,-270.12 664.51,-270.37 666.98,-276.92"/>
<text text-anchor="middle" x="585.88" y="-321.31" font-family="Arial" font-size="10.00">c</text>
</g>
<!-- A+C+S&#45;&gt;A+C+R+S -->
<g id="edge20" class="edge">
<title>A+C+S&#45;&gt;A+C+R+S</title>
<path fill="none" stroke="black" d="M490.35,-219.44C504.53,-215.67 522.55,-210.88 539.04,-206.5"/>
<polygon fill="black" stroke="black" points="540.29,-209.78 549.06,-203.83 538.5,-203.02 540.29,-209.78"/>
<text text-anchor="middle" x="518.88" y="-217.31" font-family="Arial" font-size="10.00">a, c</text>
</g>
<!-- A+C+S&#45;&gt;A+B+C+S -->
<g id="edge19" class="edge">
<title>A+C+S&#45;&gt;A+B+C+S</title>
<path fill="none" stroke="black" d="M487.73,-236.44C503.62,-242.86 525.37,-250.62 545.38,-254.31 582.84,-261.22 626.1,-262.12 657.95,-261.49"/>
<polygon fill="black" stroke="black" points="658.39,-264.98 668.29,-261.22 658.21,-257.98 658.39,-264.98"/>
<text text-anchor="middle" x="585.88" y="-265.31" font-family="Arial" font-size="10.00">b</text>
</g>
<!-- B+C+S&#45;&gt;B+C+R+S -->
<g id="edge25" class="edge">
<title>B+C+S&#45;&gt;B+C+R+S</title>
<path fill="none" stroke="black" d="M488.02,-63.87C503.75,-70.28 524.88,-78.88 543.4,-86.42"/>
<polygon fill="black" stroke="black" points="542.21,-89.72 552.79,-90.25 544.85,-83.23 542.21,-89.72"/>
<text text-anchor="middle" x="518.88" y="-82.31" font-family="Arial" font-size="10.00">b, c</text>
</g>
<!-- B+C+S&#45;&gt;A+B+C+S -->
<g id="edge24" class="edge">
<title>B+C+S&#45;&gt;A+B+C+S</title>
<path fill="none" stroke="black" d="M490.27,-47.5C524.71,-40.01 586.1,-32.53 626.37,-61.31 681.86,-100.96 697.62,-186.52 702.1,-231.06"/>
<polygon fill="black" stroke="black" points="698.63,-231.54 702.99,-241.19 705.6,-230.92 698.63,-231.54"/>
<text text-anchor="middle" x="585.88" y="-64.31" font-family="Arial" font-size="10.00">a</text>
</g>
<!-- A+B+C+S&#45;&gt;A+B+C+R+S -->
<g id="edge31" class="edge">
<title>A+B+C+S&#45;&gt;A+B+C+R+S</title>
<path fill="none" stroke="black" d="M741.6,-259.31C757.7,-259.31 777.11,-259.31 795.13,-259.31"/>
<polygon fill="black" stroke="black" points="795.25,-262.81 805.25,-259.31 795.25,-255.81 795.25,-262.81"/>
<text text-anchor="middle" x="773.37" y="-262.31" font-family="Arial" font-size="10.00">a, b, c</text>
</g>
</g>
</svg>
