<?xml version="1.0" encoding="UTF-8" standalone="no"?>
<!DOCTYPE svg PUBLIC "-//W3C//DTD SVG 1.1//EN"
 "http://www.w3.org/Graphics/SVG/1.1/DTD/svg11.dtd">
<!-- Generated by graphviz version 2.49.3 (20211023.0002)
 -->
<!-- Title: finite_state_machine Pages: 1 -->
<svg width="868pt" height="510pt"
 viewBox="0.00 0.00 868.49 510.31" xmlns="http://www.w3.org/2000/svg" xmlns:xlink="http://www.w3.org/1999/xlink">
<g id="graph0" class="graph" transform="scale(1 1) rotate(0) translate(4 506.31)">
<title>finite_state_machine</title>
<polygon fill="white" stroke="transparent" points="-4,4 -4,-506.31 864.49,-506.31 864.49,4 -4,4"/>
<!-- abcDfa: -->
<g id="node1" class="node">
<title>abcDfa:</title>
<text text-anchor="middle" x="29" y="-194.21" font-family="Arial" font-size="12.00">abcDfa:</text>
</g>
<!-- START -->
<g id="node2" class="node">
<title>START</title>
<ellipse fill="#e5e5e5" stroke="black" cx="29" cy="-235.31" rx="1.8" ry="1.8"/>
</g>
<!-- S -->
<g id="node10" class="node">
<title>S</title>
<ellipse fill="#e5e5e5" stroke="black" cx="122" cy="-235.31" rx="27" ry="18"/>
<text text-anchor="middle" x="122" y="-232.81" font-family="Arial" font-size="10.00">S</text>
</g>
<!-- START&#45;&gt;S -->
<g id="edge1" class="edge">
<title>START&#45;&gt;S</title>
<path fill="none" stroke="black" d="M31.02,-235.31C36.41,-235.31 62.09,-235.31 84.65,-235.31"/>
<polygon fill="black" stroke="black" points="84.71,-238.81 94.71,-235.31 84.71,-231.81 84.71,-238.81"/>
</g>
<!-- A+B+C+R+S -->
<g id="node3" class="node">
<title>A+B+C+R+S</title>
<ellipse fill="#e5e5e5" stroke="black" cx="812.93" cy="-259.31" rx="43.62" ry="18"/>
<ellipse fill="none" stroke="black" cx="812.93" cy="-259.31" rx="47.62" ry="22"/>
<text text-anchor="middle" x="812.93" y="-256.81" font-family="Arial" font-size="10.00">A+B+C+R+S</text>
</g>
<!-- A+B+C+R+S&#45;&gt;A+B+C+R+S -->
<g id="edge36" class="edge">
<title>A+B+C+R+S&#45;&gt;A+B+C+R+S</title>
<path fill="none" stroke="black" d="M798.66,-280.3C796.9,-290.4 801.65,-299.31 812.93,-299.31 820.15,-299.31 824.7,-295.65 826.57,-290.37"/>
<polygon fill="black" stroke="black" points="830.07,-290.5 827.2,-280.3 823.08,-290.06 830.07,-290.5"/>
<text text-anchor="middle" x="812.93" y="-302.31" font-family="Arial" font-size="10.00">a, b, c</text>
</g>
<!-- A+B+R+S -->
<g id="node4" class="node">
<title>A+B+R+S</title>
<ellipse fill="#e5e5e5" stroke="black" cx="545.88" cy="-379.31" rx="36.49" ry="18"/>
<ellipse fill="none" stroke="black" cx="545.88" cy="-379.31" rx="40.49" ry="22"/>
<text text-anchor="middle" x="545.88" y="-376.81" font-family="Arial" font-size="10.00">A+B+R+S</text>
</g>
<!-- A+B+R+S&#45;&gt;A+B+R+S -->
<g id="edge30" class="edge">
<title>A+B+R+S&#45;&gt;A+B+R+S</title>
<path fill="none" stroke="black" d="M534.85,-400.71C533.64,-410.63 537.32,-419.31 545.88,-419.31 551.22,-419.31 554.66,-415.92 556.2,-410.96"/>
<polygon fill="black" stroke="black" points="559.71,-410.92 556.9,-400.71 552.72,-410.44 559.71,-410.92"/>
<text text-anchor="middle" x="545.88" y="-422.31" font-family="Arial" font-size="10.00">a, b</text>
</g>
<!-- A+B+C+S -->
<g id="node17" class="node">
<title>A+B+C+S</title>
<ellipse fill="#e5e5e5" stroke="black" cx="664.87" cy="-259.31" rx="36.49" ry="18"/>
<text text-anchor="middle" x="664.87" y="-256.81" font-family="Arial" font-size="10.00">A+B+C+S</text>
</g>
<!-- A+B+R+S&#45;&gt;A+B+C+S -->
<g id="edge29" class="edge">
<title>A+B+R+S&#45;&gt;A+B+C+S</title>
<path fill="none" stroke="black" d="M577.3,-365.36C588.5,-359.3 600.78,-351.48 610.37,-342.31 627.31,-326.11 641.41,-303.55 650.88,-286.04"/>
<polygon fill="black" stroke="black" points="654.12,-287.38 655.65,-276.9 647.92,-284.14 654.12,-287.38"/>
<text text-anchor="middle" x="607.37" y="-351.31" font-family="Arial" font-size="10.00">c</text>
</g>
<!-- A+C+R+S -->
<g id="node5" class="node">
<title>A+C+R+S</title>
<ellipse fill="#e5e5e5" stroke="black" cx="545.88" cy="-194.31" rx="36.49" ry="18"/>
<ellipse fill="none" stroke="black" cx="545.88" cy="-194.31" rx="40.49" ry="22"/>
<text text-anchor="middle" x="545.88" y="-191.81" font-family="Arial" font-size="10.00">A+C+R+S</text>
</g>
<!-- A+C+R+S&#45;&gt;A+C+R+S -->
<g id="edge33" class="edge">
<title>A+C+R+S&#45;&gt;A+C+R+S</title>
<path fill="none" stroke="black" d="M534.85,-215.71C533.64,-225.63 537.32,-234.31 545.88,-234.31 551.22,-234.31 554.66,-230.92 556.2,-225.96"/>
<polygon fill="black" stroke="black" points="559.71,-225.92 556.9,-215.71 552.72,-225.44 559.71,-225.92"/>
<text text-anchor="middle" x="545.88" y="-237.31" font-family="Arial" font-size="10.00">a, c</text>
</g>
<!-- A+C+R+S&#45;&gt;A+B+C+S -->
<g id="edge32" class="edge">
<title>A+C+R+S&#45;&gt;A+B+C+S</title>
<path fill="none" stroke="black" d="M574.9,-209.88C591.82,-219.28 613.47,-231.31 631.17,-241.14"/>
<polygon fill="black" stroke="black" points="629.58,-244.26 640.03,-246.06 632.98,-238.14 629.58,-244.26"/>
<text text-anchor="middle" x="607.37" y="-232.31" font-family="Arial" font-size="10.00">b</text>
</g>
<!-- A+R+S -->
<g id="node6" class="node">
<title>A+R+S</title>
<ellipse fill="#e5e5e5" stroke="black" cx="319.84" cy="-420.31" rx="28.71" ry="18"/>
<ellipse fill="none" stroke="black" cx="319.84" cy="-420.31" rx="32.69" ry="22"/>
<text text-anchor="middle" x="319.84" y="-417.81" font-family="Arial" font-size="10.00">A+R+S</text>
</g>
<!-- A+R+S&#45;&gt;A+R+S -->
<g id="edge16" class="edge">
<title>A+R+S&#45;&gt;A+R+S</title>
<path fill="none" stroke="black" d="M310.29,-441.71C309.24,-451.63 312.43,-460.31 319.84,-460.31 324.48,-460.31 327.46,-456.92 328.79,-451.96"/>
<polygon fill="black" stroke="black" points="332.3,-451.9 329.4,-441.71 325.31,-451.48 332.3,-451.9"/>
<text text-anchor="middle" x="319.84" y="-463.31" font-family="Arial" font-size="10.00">a</text>
</g>
<!-- A+B+S -->
<g id="node14" class="node">
<title>A+B+S</title>
<ellipse fill="#e5e5e5" stroke="black" cx="423.53" cy="-349.31" rx="28.69" ry="18"/>
<text text-anchor="middle" x="423.53" y="-346.81" font-family="Arial" font-size="10.00">A+B+S</text>
</g>
<!-- A+R+S&#45;&gt;A+B+S -->
<g id="edge14" class="edge">
<title>A+R+S&#45;&gt;A+B+S</title>
<path fill="none" stroke="black" d="M352.75,-421.48C360.99,-420.58 369.55,-418.51 376.69,-414.31 391.68,-405.49 403.01,-389.62 410.66,-375.76"/>
<polygon fill="black" stroke="black" points="413.91,-377.1 415.37,-366.61 407.69,-373.9 413.91,-377.1"/>
<text text-anchor="middle" x="373.69" y="-420.31" font-family="Arial" font-size="10.00">b</text>
</g>
<!-- A+C+S -->
<g id="node15" class="node">
<title>A+C+S</title>
<ellipse fill="#e5e5e5" stroke="black" cx="423.53" cy="-226.31" rx="28.69" ry="18"/>
<text text-anchor="middle" x="423.53" y="-223.81" font-family="Arial" font-size="10.00">A+C+S</text>
</g>
<!-- A+R+S&#45;&gt;A+C+S -->
<g id="edge15" class="edge">
<title>A+R+S&#45;&gt;A+C+S</title>
<path fill="none" stroke="black" d="M346.33,-407.08C357.07,-400.36 368.87,-391.28 376.69,-380.31 378.57,-377.67 401.94,-297.5 414.56,-253.9"/>
<polygon fill="black" stroke="black" points="417.96,-254.76 417.38,-244.18 411.23,-252.82 417.96,-254.76"/>
<text text-anchor="middle" x="373.69" y="-391.31" font-family="Arial" font-size="10.00">c</text>
</g>
<!-- B+C+R+S -->
<g id="node7" class="node">
<title>B+C+R+S</title>
<ellipse fill="#e5e5e5" stroke="black" cx="545.88" cy="-103.31" rx="36.49" ry="18"/>
<ellipse fill="none" stroke="black" cx="545.88" cy="-103.31" rx="40.49" ry="22"/>
<text text-anchor="middle" x="545.88" y="-100.81" font-family="Arial" font-size="10.00">B+C+R+S</text>
</g>
<!-- B+C+R+S&#45;&gt;B+C+R+S -->
<g id="edge35" class="edge">
<title>B+C+R+S&#45;&gt;B+C+R+S</title>
<path fill="none" stroke="black" d="M534.85,-124.71C533.64,-134.63 537.32,-143.31 545.88,-143.31 551.22,-143.31 554.66,-139.92 556.2,-134.96"/>
<polygon fill="black" stroke="black" points="559.71,-134.92 556.9,-124.71 552.72,-134.44 559.71,-134.92"/>
<text text-anchor="middle" x="545.88" y="-146.31" font-family="Arial" font-size="10.00">b, c</text>
</g>
<!-- B+C+R+S&#45;&gt;A+B+C+S -->
<g id="edge34" class="edge">
<title>B+C+R+S&#45;&gt;A+B+C+S</title>
<path fill="none" stroke="black" d="M562.17,-123.7C583.46,-152.09 621.99,-203.47 645.03,-234.18"/>
<polygon fill="black" stroke="black" points="642.28,-236.36 651.08,-242.26 647.88,-232.16 642.28,-236.36"/>
<text text-anchor="middle" x="607.37" y="-189.31" font-family="Arial" font-size="10.00">a</text>
</g>
<!-- B+R+S -->
<g id="node8" class="node">
<title>B+R+S</title>
<ellipse fill="#e5e5e5" stroke="black" cx="319.84" cy="-235.31" rx="28.71" ry="18"/>
<ellipse fill="none" stroke="black" cx="319.84" cy="-235.31" rx="32.69" ry="22"/>
<text text-anchor="middle" x="319.84" y="-232.81" font-family="Arial" font-size="10.00">B+R+S</text>
</g>
<!-- B+R+S&#45;&gt;B+R+S -->
<g id="edge23" class="edge">
<title>B+R+S&#45;&gt;B+R+S</title>
<path fill="none" stroke="black" d="M310.29,-256.71C309.24,-266.63 312.43,-275.31 319.84,-275.31 324.48,-275.31 327.46,-271.92 328.79,-266.96"/>
<polygon fill="black" stroke="black" points="332.3,-266.9 329.4,-256.71 325.31,-266.48 332.3,-266.9"/>
<text text-anchor="middle" x="319.84" y="-278.31" font-family="Arial" font-size="10.00">b</text>
</g>
<!-- B+R+S&#45;&gt;A+B+S -->
<g id="edge21" class="edge">
<title>B+R+S&#45;&gt;A+B+S</title>
<path fill="none" stroke="black" d="M337.76,-253.98C348.86,-266.26 363.68,-282.71 376.69,-297.31 384.9,-306.53 393.9,-316.71 401.73,-325.6"/>
<polygon fill="black" stroke="black" points="399.3,-328.14 408.53,-333.34 404.56,-323.52 399.3,-328.14"/>
<text text-anchor="middle" x="373.69" y="-300.31" font-family="Arial" font-size="10.00">a</text>
</g>
<!-- B+C+S -->
<g id="node16" class="node">
<title>B+C+S</title>
<ellipse fill="#e5e5e5" stroke="black" cx="423.53" cy="-54.31" rx="28.69" ry="18"/>
<text text-anchor="middle" x="423.53" y="-51.81" font-family="Arial" font-size="10.00">B+C+S</text>
</g>
<!-- B+R+S&#45;&gt;B+C+S -->
<g id="edge22" class="edge">
<title>B+R+S&#45;&gt;B+C+S</title>
<path fill="none" stroke="black" d="M338.74,-217.05C343.59,-211.59 348.62,-205.42 352.69,-199.31 378.26,-160.84 399.93,-111.59 412.07,-81.52"/>
<polygon fill="black" stroke="black" points="415.38,-82.69 415.82,-72.1 408.87,-80.1 415.38,-82.69"/>
<text text-anchor="middle" x="373.69" y="-172.31" font-family="Arial" font-size="10.00">c</text>
</g>
<!-- C+R+S -->
<g id="node9" class="node">
<title>C+R+S</title>
<ellipse fill="#e5e5e5" stroke="black" cx="319.84" cy="-50.31" rx="28.71" ry="18"/>
<ellipse fill="none" stroke="black" cx="319.84" cy="-50.31" rx="32.69" ry="22"/>
<text text-anchor="middle" x="319.84" y="-47.81" font-family="Arial" font-size="10.00">C+R+S</text>
</g>
<!-- C+R+S&#45;&gt;C+R+S -->
<g id="edge28" class="edge">
<title>C+R+S&#45;&gt;C+R+S</title>
<path fill="none" stroke="black" d="M310.29,-71.71C309.24,-81.63 312.43,-90.31 319.84,-90.31 324.48,-90.31 327.46,-86.92 328.79,-81.96"/>
<polygon fill="black" stroke="black" points="332.3,-81.9 329.4,-71.71 325.31,-81.48 332.3,-81.9"/>
<text text-anchor="middle" x="319.84" y="-93.31" font-family="Arial" font-size="10.00">c</text>
</g>
<!-- C+R+S&#45;&gt;A+C+S -->
<g id="edge26" class="edge">
<title>C+R+S&#45;&gt;A+C+S</title>
<path fill="none" stroke="black" d="M334.49,-70.36C346.15,-87.78 363.15,-113.83 376.69,-137.31 388.56,-157.89 400.82,-181.86 409.68,-199.74"/>
<polygon fill="black" stroke="black" points="406.67,-201.56 414.22,-208.99 412.95,-198.47 406.67,-201.56"/>
<text text-anchor="middle" x="373.69" y="-140.31" font-family="Arial" font-size="10.00">a</text>
</g>
<!-- C+R+S&#45;&gt;B+C+S -->
<g id="edge27" class="edge">
<title>C+R+S&#45;&gt;B+C+S</title>
<path fill="none" stroke="black" d="M352.74,-51.56C362.79,-51.96 373.99,-52.4 384.42,-52.81"/>
<polygon fill="black" stroke="black" points="384.4,-56.31 394.53,-53.21 384.68,-49.32 384.4,-56.31"/>
<text text-anchor="middle" x="373.69" y="-56.31" font-family="Arial" font-size="10.00">b</text>
</g>
<!-- A+S -->
<g id="node11" class="node">
<title>A+S</title>
<ellipse fill="#e5e5e5" stroke="black" cx="218" cy="-390.31" rx="27" ry="18"/>
<text text-anchor="middle" x="218" y="-387.81" font-family="Arial" font-size="10.00">A+S</text>
</g>
<!-- S&#45;&gt;A+S -->
<g id="edge2" class="edge">
<title>S&#45;&gt;A+S</title>
<path fill="none" stroke="black" d="M133.06,-251.9C149.53,-279.05 182.34,-333.15 201.7,-365.08"/>
<polygon fill="black" stroke="black" points="198.83,-367.1 207.01,-373.84 204.82,-363.47 198.83,-367.1"/>
<text text-anchor="middle" x="170" y="-321.31" font-family="Arial" font-size="10.00">a</text>
</g>
<!-- B+S -->
<g id="node12" class="node">
<title>B+S</title>
<ellipse fill="#e5e5e5" stroke="black" cx="218" cy="-235.31" rx="27" ry="18"/>
<text text-anchor="middle" x="218" y="-232.81" font-family="Arial" font-size="10.00">B+S</text>
</g>
<!-- S&#45;&gt;B+S -->
<g id="edge3" class="edge">
<title>S&#45;&gt;B+S</title>
<path fill="none" stroke="black" d="M149.18,-235.31C158.96,-235.31 170.25,-235.31 180.77,-235.31"/>
<polygon fill="black" stroke="black" points="180.96,-238.81 190.96,-235.31 180.96,-231.81 180.96,-238.81"/>
<text text-anchor="middle" x="170" y="-238.31" font-family="Arial" font-size="10.00">b</text>
</g>
<!-- C+S -->
<g id="node13" class="node">
<title>C+S</title>
<ellipse fill="#e5e5e5" stroke="black" cx="218" cy="-139.31" rx="27" ry="18"/>
<text text-anchor="middle" x="218" y="-136.81" font-family="Arial" font-size="10.00">C+S</text>
</g>
<!-- S&#45;&gt;C+S -->
<g id="edge4" class="edge">
<title>S&#45;&gt;C+S</title>
<path fill="none" stroke="black" d="M137.69,-220.31C153.14,-204.53 177.62,-179.52 195.3,-161.47"/>
<polygon fill="black" stroke="black" points="197.92,-163.8 202.42,-154.2 192.92,-158.9 197.92,-163.8"/>
<text text-anchor="middle" x="170" y="-193.31" font-family="Arial" font-size="10.00">c</text>
</g>
<!-- A+S&#45;&gt;A+R+S -->
<g id="edge7" class="edge">
<title>A+S&#45;&gt;A+R+S</title>
<path fill="none" stroke="black" d="M242.92,-397.49C253.93,-400.8 267.29,-404.82 279.72,-408.55"/>
<polygon fill="black" stroke="black" points="278.83,-411.94 289.42,-411.47 280.85,-405.24 278.83,-411.94"/>
<text text-anchor="middle" x="266" y="-408.31" font-family="Arial" font-size="10.00">a</text>
</g>
<!-- A+S&#45;&gt;A+B+S -->
<g id="edge5" class="edge">
<title>A+S&#45;&gt;A+B+S</title>
<path fill="none" stroke="black" d="M226.24,-407.79C236.28,-429.42 256.67,-465.21 287,-480.31 313.14,-493.32 327.66,-495.33 352.69,-480.31 389.82,-458.03 408.3,-408.57 416.61,-377.2"/>
<polygon fill="black" stroke="black" points="420.05,-377.87 419.05,-367.32 413.26,-376.19 420.05,-377.87"/>
<text text-anchor="middle" x="319.84" y="-494.31" font-family="Arial" font-size="10.00">b</text>
</g>
<!-- A+S&#45;&gt;A+C+S -->
<g id="edge6" class="edge">
<title>A+S&#45;&gt;A+C+S</title>
<path fill="none" stroke="black" d="M244.09,-385.62C272.5,-379.38 319.18,-366.25 352.69,-342.31 383.39,-320.37 403.05,-280.35 413.44,-253.54"/>
<polygon fill="black" stroke="black" points="416.79,-254.57 416.98,-243.97 410.23,-252.14 416.79,-254.57"/>
<text text-anchor="middle" x="319.84" y="-377.31" font-family="Arial" font-size="10.00">c</text>
</g>
<!-- B+S&#45;&gt;B+R+S -->
<g id="edge10" class="edge">
<title>B+S&#45;&gt;B+R+S</title>
<path fill="none" stroke="black" d="M245.23,-235.31C254.87,-235.31 266.03,-235.31 276.71,-235.31"/>
<polygon fill="black" stroke="black" points="276.73,-238.81 286.73,-235.31 276.73,-231.81 276.73,-238.81"/>
<text text-anchor="middle" x="266" y="-238.31" font-family="Arial" font-size="10.00">b</text>
</g>
<!-- B+S&#45;&gt;A+B+S -->
<g id="edge8" class="edge">
<title>B+S&#45;&gt;A+B+S</title>
<path fill="none" stroke="black" d="M233.2,-250.51C246.2,-263.73 266.48,-282.7 287,-295.31 318.81,-314.86 358.92,-329.8 387.23,-338.95"/>
<polygon fill="black" stroke="black" points="386.5,-342.39 397.08,-342.06 388.6,-335.72 386.5,-342.39"/>
<text text-anchor="middle" x="319.84" y="-330.31" font-family="Arial" font-size="10.00">a</text>
</g>
<!-- B+S&#45;&gt;B+C+S -->
<g id="edge9" class="edge">
<title>B+S&#45;&gt;B+C+S</title>
<path fill="none" stroke="black" d="M228.34,-218.63C239.79,-199.66 260.92,-169.01 287,-151.31 321.55,-127.85 343.28,-148.36 376.69,-123.31 391.32,-112.34 402.73,-95.24 410.5,-80.81"/>
<polygon fill="black" stroke="black" points="413.67,-82.31 415.08,-71.81 407.43,-79.13 413.67,-82.31"/>
<text text-anchor="middle" x="319.84" y="-154.31" font-family="Arial" font-size="10.00">c</text>
</g>
<!-- C+S&#45;&gt;C+R+S -->
<g id="edge13" class="edge">
<title>C+S&#45;&gt;C+R+S</title>
<path fill="none" stroke="black" d="M235.04,-125.01C250.24,-111.46 273.38,-90.83 291.49,-74.69"/>
<polygon fill="black" stroke="black" points="294.28,-76.89 299.42,-67.62 289.62,-71.67 294.28,-76.89"/>
<text text-anchor="middle" x="266" y="-101.31" font-family="Arial" font-size="10.00">c</text>
</g>
<!-- C+S&#45;&gt;A+C+S -->
<g id="edge11" class="edge">
<title>C+S&#45;&gt;A+C+S</title>
<path fill="none" stroke="black" d="M241.87,-148.09C268.63,-158.46 314.17,-176.44 352.69,-193.31 365.39,-198.87 379.22,-205.32 391.2,-211.03"/>
<polygon fill="black" stroke="black" points="389.82,-214.25 400.35,-215.43 392.85,-207.94 389.82,-214.25"/>
<text text-anchor="middle" x="319.84" y="-196.31" font-family="Arial" font-size="10.00">a</text>
</g>
<!-- C+S&#45;&gt;B+C+S -->
<g id="edge12" class="edge">
<title>C+S&#45;&gt;B+C+S</title>
<path fill="none" stroke="black" d="M222.23,-121.31C228.64,-91.62 246.05,-33.19 287,-8.31 322.41,13.21 369.19,-12.82 397.51,-33.59"/>
<polygon fill="black" stroke="black" points="395.6,-36.53 405.67,-39.8 399.84,-30.96 395.6,-36.53"/>
<text text-anchor="middle" x="319.84" y="-11.31" font-family="Arial" font-size="10.00">b</text>
</g>
<!-- A+B+S&#45;&gt;A+B+R+S -->
<g id="edge18" class="edge">
<title>A+B+S&#45;&gt;A+B+R+S</title>
<path fill="none" stroke="black" d="M450.65,-355.82C464.73,-359.33 482.52,-363.76 498.84,-367.83"/>
<polygon fill="black" stroke="black" points="498.22,-371.28 508.77,-370.31 499.91,-364.49 498.22,-371.28"/>
<text text-anchor="middle" x="478.88" y="-367.31" font-family="Arial" font-size="10.00">a, b</text>
</g>
<!-- A+B+S&#45;&gt;A+B+C+S -->
<g id="edge17" class="edge">
<title>A+B+S&#45;&gt;A+B+C+S</title>
<path fill="none" stroke="black" d="M448.8,-340.18C490.47,-324.51 575.93,-292.38 625.66,-273.68"/>
<polygon fill="black" stroke="black" points="626.98,-276.92 635.11,-270.12 624.51,-270.37 626.98,-276.92"/>
<text text-anchor="middle" x="545.88" y="-321.31" font-family="Arial" font-size="10.00">c</text>
</g>
<!-- A+C+S&#45;&gt;A+C+R+S -->
<g id="edge20" class="edge">
<title>A+C+S&#45;&gt;A+C+R+S</title>
<path fill="none" stroke="black" d="M450.35,-219.44C464.53,-215.67 482.55,-210.88 499.04,-206.5"/>
<polygon fill="black" stroke="black" points="500.29,-209.78 509.06,-203.83 498.5,-203.02 500.29,-209.78"/>
<text text-anchor="middle" x="478.88" y="-217.31" font-family="Arial" font-size="10.00">a, c</text>
</g>
<!-- A+C+S&#45;&gt;A+B+C+S -->
<g id="edge19" class="edge">
<title>A+C+S&#45;&gt;A+B+C+S</title>
<path fill="none" stroke="black" d="M447.73,-236.44C463.62,-242.86 485.37,-250.62 505.38,-254.31 542.84,-261.22 586.1,-262.12 617.95,-261.49"/>
<polygon fill="black" stroke="black" points="618.39,-264.98 628.29,-261.22 618.21,-257.98 618.39,-264.98"/>
<text text-anchor="middle" x="545.88" y="-265.31" font-family="Arial" font-size="10.00">b</text>
</g>
<!-- B+C+S&#45;&gt;B+C+R+S -->
<g id="edge25" class="edge">
<title>B+C+S&#45;&gt;B+C+R+S</title>
<path fill="none" stroke="black" d="M448.02,-63.87C463.75,-70.28 484.88,-78.88 503.4,-86.42"/>
<polygon fill="black" stroke="black" points="502.21,-89.72 512.79,-90.25 504.85,-83.23 502.21,-89.72"/>
<text text-anchor="middle" x="478.88" y="-82.31" font-family="Arial" font-size="10.00">b, c</text>
</g>
<!-- B+C+S&#45;&gt;A+B+C+S -->
<g id="edge24" class="edge">
<title>B+C+S&#45;&gt;A+B+C+S</title>
<path fill="none" stroke="black" d="M450.27,-47.5C484.71,-40.01 546.1,-32.53 586.37,-61.31 641.86,-100.96 657.62,-186.52 662.1,-231.06"/>
<polygon fill="black" stroke="black" points="658.63,-231.54 662.99,-241.19 665.6,-230.92 658.63,-231.54"/>
<text text-anchor="middle" x="545.88" y="-64.31" font-family="Arial" font-size="10.00">a</text>
</g>
<!-- A+B+C+S&#45;&gt;A+B+C+R+S -->
<g id="edge31" class="edge">
<title>A+B+C+S&#45;&gt;A+B+C+R+S</title>
<path fill="none" stroke="black" d="M701.6,-259.31C717.7,-259.31 737.11,-259.31 755.13,-259.31"/>
<polygon fill="black" stroke="black" points="755.25,-262.81 765.25,-259.31 755.25,-255.81 755.25,-262.81"/>
<text text-anchor="middle" x="733.37" y="-262.31" font-family="Arial" font-size="10.00">a, b, c</text>
</g>
</g>
</svg>
