<?xml version="1.0" encoding="UTF-8" standalone="no"?>
<!DOCTYPE svg PUBLIC "-//W3C//DTD SVG 1.1//EN"
 "http://www.w3.org/Graphics/SVG/1.1/DTD/svg11.dtd">
<!-- Generated by graphviz version 2.49.3 (20211023.0002)
 -->
<!-- Title: finite_state_machine Pages: 1 -->
<svg width="221pt" height="115pt"
 viewBox="0.00 0.00 221.00 115.00" xmlns="http://www.w3.org/2000/svg" xmlns:xlink="http://www.w3.org/1999/xlink">
<g id="graph0" class="graph" transform="scale(1 1) rotate(0) translate(4 111)">
<title>finite_state_machine</title>
<polygon fill="white" stroke="transparent" points="-4,4 -4,-111 217,-111 217,4 -4,4"/>
<!-- dfa: -->
<g id="node1" class="node">
<title>dfa:</title>
<text text-anchor="middle" x="27" y="-14.9" font-family="Arial" font-size="12.00">dfa:</text>
</g>
<!-- START -->
<g id="node2" class="node">
<title>START</title>
<ellipse fill="#e5e5e5" stroke="black" cx="27" cy="-56" rx="1.8" ry="1.8"/>
</g>
<!-- B -->
<g id="node4" class="node">
<title>B</title>
<ellipse fill="#e5e5e5" stroke="black" cx="109" cy="-56" rx="18" ry="18"/>
<text text-anchor="middle" x="109" y="-53.5" font-family="Arial" font-size="10.00">B</text>
</g>
<!-- START&#45;&gt;B -->
<g id="edge1" class="edge">
<title>START&#45;&gt;B</title>
<path fill="none" stroke="black" d="M28.9,-56C33.99,-56 59.68,-56 80.43,-56"/>
<polygon fill="black" stroke="black" points="80.69,-59.5 90.69,-56 80.69,-52.5 80.69,-59.5"/>
</g>
<!-- R -->
<g id="node3" class="node">
<title>R</title>
<ellipse fill="#e5e5e5" stroke="black" cx="191" cy="-56" rx="18" ry="18"/>
<ellipse fill="none" stroke="black" cx="191" cy="-56" rx="22" ry="22"/>
<text text-anchor="middle" x="191" y="-53.5" font-family="Arial" font-size="10.00">R</text>
</g>
<!-- R&#45;&gt;R -->
<g id="edge3" class="edge">
<title>R&#45;&gt;R</title>
<path fill="none" stroke="black" d="M183.32,-76.99C182.37,-87.09 184.93,-96 191,-96 194.89,-96 197.34,-92.34 198.35,-87.06"/>
<polygon fill="black" stroke="black" points="201.85,-87.1 198.68,-76.99 194.85,-86.87 201.85,-87.1"/>
<text text-anchor="middle" x="191" y="-99" font-family="Arial" font-size="10.00">b, z</text>
</g>
<!-- B&#45;&gt;R -->
<g id="edge2" class="edge">
<title>B&#45;&gt;R</title>
<path fill="none" stroke="black" d="M127.36,-56C136.53,-56 148.06,-56 158.72,-56"/>
<polygon fill="black" stroke="black" points="158.98,-59.5 168.98,-56 158.98,-52.5 158.98,-59.5"/>
<text text-anchor="middle" x="148" y="-59" font-family="Arial" font-size="10.00">b</text>
</g>
</g>
</svg>
