<?xml version="1.0" encoding="UTF-8" standalone="no"?>
<!DOCTYPE svg PUBLIC "-//W3C//DTD SVG 1.1//EN"
 "http://www.w3.org/Graphics/SVG/1.1/DTD/svg11.dtd">
<!-- Generated by graphviz version 2.49.3 (20211023.0002)
 -->
<!-- Title: finite_state_machine Pages: 1 -->
<svg width="677pt" height="125pt"
 viewBox="0.00 0.00 677.00 125.00" xmlns="http://www.w3.org/2000/svg" xmlns:xlink="http://www.w3.org/1999/xlink">
<g id="graph0" class="graph" transform="scale(1 1) rotate(0) translate(4 121)">
<title>finite_state_machine</title>
<polygon fill="white" stroke="transparent" points="-4,4 -4,-121 673,-121 673,4 -4,4"/>
<!-- dfaOfNfa: -->
<g id="node1" class="node">
<title>dfaOfNfa:</title>
<text text-anchor="middle" x="33" y="-24.9" font-family="Arial" font-size="12.00">dfaOfNfa:</text>
</g>
<!-- START -->
<g id="node2" class="node">
<title>START</title>
<ellipse fill="#e5e5e5" stroke="black" cx="33" cy="-66" rx="1.8" ry="1.8"/>
</g>
<!-- 1 -->
<g id="node7" class="node">
<title>1</title>
<ellipse fill="#e5e5e5" stroke="black" cx="130" cy="-66" rx="27" ry="18"/>
<text text-anchor="middle" x="130" y="-63.5" font-family="Arial" font-size="10.00">1</text>
</g>
<!-- START&#45;&gt;1 -->
<g id="edge1" class="edge">
<title>START&#45;&gt;1</title>
<path fill="none" stroke="black" d="M35.07,-66C40.82,-66 68.77,-66 92.7,-66"/>
<polygon fill="black" stroke="black" points="92.98,-69.5 102.98,-66 92.98,-62.5 92.98,-69.5"/>
</g>
<!-- 1+3+4 -->
<g id="node3" class="node">
<title>1+3+4</title>
<ellipse fill="#e5e5e5" stroke="black" cx="638" cy="-56" rx="27" ry="18"/>
<ellipse fill="none" stroke="black" cx="638" cy="-56" rx="31" ry="22"/>
<text text-anchor="middle" x="638" y="-53.5" font-family="Arial" font-size="10.00">1+3+4</text>
</g>
<!-- 1+4 -->
<g id="node4" class="node">
<title>1+4</title>
<ellipse fill="#e5e5e5" stroke="black" cx="430" cy="-66" rx="27" ry="18"/>
<ellipse fill="none" stroke="black" cx="430" cy="-66" rx="31" ry="22"/>
<text text-anchor="middle" x="430" y="-63.5" font-family="Arial" font-size="10.00">1+4</text>
</g>
<!-- 1+3+4&#45;&gt;1+4 -->
<g id="edge12" class="edge">
<title>1+3+4&#45;&gt;1+4</title>
<path fill="none" stroke="black" d="M611.6,-67.62C598.07,-73.17 580.97,-79.2 565,-82 532.77,-87.64 495.82,-82.37 468.9,-76.41"/>
<polygon fill="black" stroke="black" points="469.64,-72.98 459.1,-74.11 468.04,-79.8 469.64,-72.98"/>
<text text-anchor="middle" x="534" y="-88" font-family="Arial" font-size="10.00">b</text>
</g>
<!-- 2+4 -->
<g id="node6" class="node">
<title>2+4</title>
<ellipse fill="#e5e5e5" stroke="black" cx="534" cy="-22" rx="27" ry="18"/>
<ellipse fill="none" stroke="black" cx="534" cy="-22" rx="31" ry="22"/>
<text text-anchor="middle" x="534" y="-19.5" font-family="Arial" font-size="10.00">2+4</text>
</g>
<!-- 1+3+4&#45;&gt;2+4 -->
<g id="edge13" class="edge">
<title>1+3+4&#45;&gt;2+4</title>
<path fill="none" stroke="black" d="M617.28,-39.28C609.07,-33.31 599.1,-27.26 589,-24 584.61,-22.58 579.92,-21.64 575.2,-21.03"/>
<polygon fill="black" stroke="black" points="575.19,-17.52 564.94,-20.2 574.62,-24.5 575.19,-17.52"/>
<text text-anchor="middle" x="586" y="-27" font-family="Arial" font-size="10.00">a</text>
</g>
<!-- 1+4&#45;&gt;1+4 -->
<g id="edge8" class="edge">
<title>1+4&#45;&gt;1+4</title>
<path fill="none" stroke="black" d="M420.49,-86.99C419.31,-97.09 422.48,-106 430,-106 434.81,-106 437.85,-102.34 439.09,-97.06"/>
<polygon fill="black" stroke="black" points="442.59,-97.13 439.51,-86.99 435.6,-96.84 442.59,-97.13"/>
<text text-anchor="middle" x="430" y="-109" font-family="Arial" font-size="10.00">b</text>
</g>
<!-- 1+4&#45;&gt;2+4 -->
<g id="edge9" class="edge">
<title>1+4&#45;&gt;2+4</title>
<path fill="none" stroke="black" d="M457,-54.78C469.35,-49.46 484.3,-43.01 497.66,-37.25"/>
<polygon fill="black" stroke="black" points="499.25,-40.37 507.04,-33.2 496.48,-33.94 499.25,-40.37"/>
<text text-anchor="middle" x="482" y="-47" font-family="Arial" font-size="10.00">a</text>
</g>
<!-- 2 -->
<g id="node5" class="node">
<title>2</title>
<ellipse fill="#e5e5e5" stroke="black" cx="230" cy="-66" rx="27" ry="18"/>
<ellipse fill="none" stroke="black" cx="230" cy="-66" rx="31" ry="22"/>
<text text-anchor="middle" x="230" y="-63.5" font-family="Arial" font-size="10.00">2</text>
</g>
<!-- 2&#45;&gt;2 -->
<g id="edge5" class="edge">
<title>2&#45;&gt;2</title>
<path fill="none" stroke="black" d="M220.49,-86.99C219.31,-97.09 222.48,-106 230,-106 234.81,-106 237.85,-102.34 239.09,-97.06"/>
<polygon fill="black" stroke="black" points="242.59,-97.13 239.51,-86.99 235.6,-96.84 242.59,-97.13"/>
<text text-anchor="middle" x="230" y="-109" font-family="Arial" font-size="10.00">a</text>
</g>
<!-- 1+3 -->
<g id="node8" class="node">
<title>1+3</title>
<ellipse fill="#e5e5e5" stroke="black" cx="330" cy="-66" rx="27" ry="18"/>
<text text-anchor="middle" x="330" y="-63.5" font-family="Arial" font-size="10.00">1+3</text>
</g>
<!-- 2&#45;&gt;1+3 -->
<g id="edge4" class="edge">
<title>2&#45;&gt;1+3</title>
<path fill="none" stroke="black" d="M261.2,-66C271.16,-66 282.33,-66 292.69,-66"/>
<polygon fill="black" stroke="black" points="292.71,-69.5 302.71,-66 292.71,-62.5 292.71,-69.5"/>
<text text-anchor="middle" x="282" y="-69" font-family="Arial" font-size="10.00">b</text>
</g>
<!-- 2+4&#45;&gt;1+3+4 -->
<g id="edge10" class="edge">
<title>2+4&#45;&gt;1+3+4</title>
<path fill="none" stroke="black" d="M562.33,-31.11C573.88,-34.96 587.51,-39.5 599.94,-43.65"/>
<polygon fill="black" stroke="black" points="599,-47.02 609.59,-46.86 601.21,-40.38 599,-47.02"/>
<text text-anchor="middle" x="586" y="-42" font-family="Arial" font-size="10.00">b</text>
</g>
<!-- 2+4&#45;&gt;2+4 -->
<g id="edge11" class="edge">
<title>2+4&#45;&gt;2+4</title>
<path fill="none" stroke="black" d="M524.49,-42.99C523.31,-53.09 526.48,-62 534,-62 538.81,-62 541.85,-58.34 543.09,-53.06"/>
<polygon fill="black" stroke="black" points="546.59,-53.13 543.51,-42.99 539.6,-52.84 546.59,-53.13"/>
<text text-anchor="middle" x="534" y="-65" font-family="Arial" font-size="10.00">a</text>
</g>
<!-- 1&#45;&gt;2 -->
<g id="edge3" class="edge">
<title>1&#45;&gt;2</title>
<path fill="none" stroke="black" d="M157,-66C166.72,-66 177.99,-66 188.69,-66"/>
<polygon fill="black" stroke="black" points="188.7,-69.5 198.7,-66 188.7,-62.5 188.7,-69.5"/>
<text text-anchor="middle" x="178" y="-69" font-family="Arial" font-size="10.00">a</text>
</g>
<!-- 1&#45;&gt;1 -->
<g id="edge2" class="edge">
<title>1&#45;&gt;1</title>
<path fill="none" stroke="black" d="M122.14,-83.41C120.68,-93.09 123.3,-102 130,-102 134.19,-102 136.78,-98.52 137.78,-93.54"/>
<polygon fill="black" stroke="black" points="141.28,-93.44 137.86,-83.41 134.28,-93.38 141.28,-93.44"/>
<text text-anchor="middle" x="130" y="-105" font-family="Arial" font-size="10.00">b</text>
</g>
<!-- 1+3&#45;&gt;1+4 -->
<g id="edge6" class="edge">
<title>1+3&#45;&gt;1+4</title>
<path fill="none" stroke="black" d="M357,-66C366.72,-66 377.99,-66 388.69,-66"/>
<polygon fill="black" stroke="black" points="388.7,-69.5 398.7,-66 388.7,-62.5 388.7,-69.5"/>
<text text-anchor="middle" x="378" y="-69" font-family="Arial" font-size="10.00">b</text>
</g>
<!-- 1+3&#45;&gt;2 -->
<g id="edge7" class="edge">
<title>1+3&#45;&gt;2</title>
<path fill="none" stroke="black" d="M306.53,-56.76C299.73,-54.39 292.17,-52.19 285,-51 278.91,-49.99 272.53,-50.4 266.36,-51.59"/>
<polygon fill="black" stroke="black" points="265.09,-48.31 256.3,-54.22 266.86,-55.08 265.09,-48.31"/>
<text text-anchor="middle" x="282" y="-54" font-family="Arial" font-size="10.00">a</text>
</g>
</g>
</svg>
