<?xml version="1.0" encoding="UTF-8" standalone="no"?>
<!DOCTYPE svg PUBLIC "-//W3C//DTD SVG 1.1//EN"
 "http://www.w3.org/Graphics/SVG/1.1/DTD/svg11.dtd">
<!-- Generated by graphviz version 2.49.3 (20211023.0002)
 -->
<!-- Title: finite_state_machine Pages: 1 -->
<svg width="328pt" height="149pt"
 viewBox="0.00 0.00 328.00 149.00" xmlns="http://www.w3.org/2000/svg" xmlns:xlink="http://www.w3.org/1999/xlink">
<g id="graph0" class="graph" transform="scale(1 1) rotate(0) translate(4 145)">
<title>finite_state_machine</title>
<polygon fill="white" stroke="transparent" points="-4,4 -4,-145 324,-145 324,4 -4,4"/>
<!-- faOfG: -->
<g id="node1" class="node">
<title>faOfG:</title>
<text text-anchor="middle" x="27" y="-59.9" font-family="Arial" font-size="12.00">faOfG:</text>
</g>
<!-- START -->
<g id="node2" class="node">
<title>START</title>
<ellipse fill="#e5e5e5" stroke="black" cx="27" cy="-101" rx="1.8" ry="1.8"/>
</g>
<!-- B -->
<g id="node4" class="node">
<title>B</title>
<ellipse fill="#e5e5e5" stroke="black" cx="109" cy="-101" rx="18" ry="18"/>
<text text-anchor="middle" x="109" y="-98.5" font-family="Arial" font-size="10.00">B</text>
</g>
<!-- START&#45;&gt;B -->
<g id="edge1" class="edge">
<title>START&#45;&gt;B</title>
<path fill="none" stroke="black" d="M28.9,-101C33.99,-101 59.68,-101 80.43,-101"/>
<polygon fill="black" stroke="black" points="80.69,-104.5 90.69,-101 80.69,-97.5 80.69,-104.5"/>
</g>
<!-- END -->
<g id="node3" class="node">
<title>END</title>
<ellipse fill="#e5e5e5" stroke="black" cx="289" cy="-101" rx="27" ry="18"/>
<ellipse fill="none" stroke="black" cx="289" cy="-101" rx="31" ry="22"/>
<text text-anchor="middle" x="289" y="-98.5" font-family="Arial" font-size="10.00">END</text>
</g>
<!-- B&#45;&gt;END -->
<g id="edge3" class="edge">
<title>B&#45;&gt;END</title>
<path fill="none" stroke="black" d="M124.9,-110C136.46,-116.43 153.15,-124.55 169,-128 197.56,-134.22 229.91,-125.89 253.66,-116.89"/>
<polygon fill="black" stroke="black" points="254.97,-120.14 262.95,-113.17 252.37,-113.64 254.97,-120.14"/>
<text text-anchor="middle" x="187" y="-133" font-family="Arial" font-size="10.00">b</text>
</g>
<!-- E -->
<g id="node5" class="node">
<title>E</title>
<ellipse fill="#e5e5e5" stroke="black" cx="187" cy="-101" rx="18" ry="18"/>
<text text-anchor="middle" x="187" y="-98.5" font-family="Arial" font-size="10.00">E</text>
</g>
<!-- B&#45;&gt;E -->
<g id="edge2" class="edge">
<title>B&#45;&gt;E</title>
<path fill="none" stroke="black" d="M127.25,-101C136.48,-101 148.07,-101 158.51,-101"/>
<polygon fill="black" stroke="black" points="158.82,-104.5 168.82,-101 158.82,-97.5 158.82,-104.5"/>
<text text-anchor="middle" x="148" y="-104" font-family="Arial" font-size="10.00">b</text>
</g>
<!-- R -->
<g id="node6" class="node">
<title>R</title>
<ellipse fill="#e5e5e5" stroke="black" cx="187" cy="-18" rx="18" ry="18"/>
<text text-anchor="middle" x="187" y="-15.5" font-family="Arial" font-size="10.00">R</text>
</g>
<!-- B&#45;&gt;R -->
<g id="edge4" class="edge">
<title>B&#45;&gt;R</title>
<path fill="none" stroke="black" d="M121.88,-88.03C134.03,-74.75 153.11,-53.92 167.3,-38.43"/>
<polygon fill="black" stroke="black" points="170.04,-40.62 174.21,-30.88 164.87,-35.89 170.04,-40.62"/>
<text text-anchor="middle" x="148" y="-64" font-family="Arial" font-size="10.00">b</text>
</g>
<!-- E&#45;&gt;END -->
<g id="edge5" class="edge">
<title>E&#45;&gt;END</title>
<path fill="none" stroke="black" d="M205.42,-101C217.04,-101 232.81,-101 247.46,-101"/>
<polygon fill="black" stroke="black" points="247.85,-104.5 257.85,-101 247.85,-97.5 247.85,-104.5"/>
<text text-anchor="middle" x="231.5" y="-104" font-family="Arial" font-size="10.00">e</text>
</g>
<!-- R&#45;&gt;END -->
<g id="edge6" class="edge">
<title>R&#45;&gt;END</title>
<path fill="none" stroke="black" d="M201.49,-29.19C216.51,-41.66 241.19,-62.15 260.36,-78.06"/>
<polygon fill="black" stroke="black" points="258.26,-80.87 268.19,-84.56 262.73,-75.48 258.26,-80.87"/>
<text text-anchor="middle" x="231.5" y="-62" font-family="Arial" font-size="10.00">b, z</text>
</g>
<!-- R&#45;&gt;R -->
<g id="edge7" class="edge">
<title>R&#45;&gt;R</title>
<path fill="none" stroke="black" d="M180.27,-35.04C178.89,-44.86 181.14,-54 187,-54 190.66,-54 192.92,-50.43 193.75,-45.35"/>
<polygon fill="black" stroke="black" points="197.25,-45.03 193.73,-35.04 190.25,-45.04 197.25,-45.03"/>
<text text-anchor="middle" x="187" y="-57" font-family="Arial" font-size="10.00">b, z</text>
</g>
</g>
</svg>
