<?xml version="1.0" encoding="UTF-8" standalone="no"?>
<!DOCTYPE svg PUBLIC "-//W3C//DTD SVG 1.1//EN"
 "http://www.w3.org/Graphics/SVG/1.1/DTD/svg11.dtd">
<!-- Generated by graphviz version 2.49.3 (20211023.0002)
 -->
<!-- Title: finite_state_machine Pages: 1 -->
<svg width="328pt" height="94pt"
 viewBox="0.00 0.00 328.00 94.00" xmlns="http://www.w3.org/2000/svg" xmlns:xlink="http://www.w3.org/1999/xlink">
<g id="graph0" class="graph" transform="scale(1 1) rotate(0) translate(4 90)">
<title>finite_state_machine</title>
<polygon fill="white" stroke="transparent" points="-4,4 -4,-90 324,-90 324,4 -4,4"/>
<!-- faOfG: -->
<g id="node1" class="node">
<title>faOfG:</title>
<text text-anchor="middle" x="27" y="-18.9" font-family="Arial" font-size="12.00">faOfG:</text>
</g>
<!-- START -->
<g id="node2" class="node">
<title>START</title>
<ellipse fill="#e5e5e5" stroke="black" cx="27" cy="-60" rx="1.8" ry="1.8"/>
</g>
<!-- B -->
<g id="node4" class="node">
<title>B</title>
<ellipse fill="#e5e5e5" stroke="black" cx="109" cy="-60" rx="18" ry="18"/>
<text text-anchor="middle" x="109" y="-57.5" font-family="Arial" font-size="10.00">B</text>
</g>
<!-- START&#45;&gt;B -->
<g id="edge1" class="edge">
<title>START&#45;&gt;B</title>
<path fill="none" stroke="black" d="M28.9,-60C33.99,-60 59.68,-60 80.43,-60"/>
<polygon fill="black" stroke="black" points="80.69,-63.5 90.69,-60 80.69,-56.5 80.69,-63.5"/>
</g>
<!-- END -->
<g id="node3" class="node">
<title>END</title>
<ellipse fill="#e5e5e5" stroke="black" cx="289" cy="-60" rx="27" ry="18"/>
<ellipse fill="none" stroke="black" cx="289" cy="-60" rx="31" ry="22"/>
<text text-anchor="middle" x="289" y="-57.5" font-family="Arial" font-size="10.00">END</text>
</g>
<!-- B&#45;&gt;END -->
<g id="edge2" class="edge">
<title>B&#45;&gt;END</title>
<path fill="none" stroke="black" d="M126.35,-64.96C138.09,-68.26 154.36,-72.29 169,-74 196,-77.16 226.44,-73.45 249.77,-69.05"/>
<polygon fill="black" stroke="black" points="250.51,-72.47 259.63,-67.08 249.14,-65.61 250.51,-72.47"/>
<text text-anchor="middle" x="187" y="-78" font-family="Arial" font-size="10.00">b</text>
</g>
<!-- R -->
<g id="node5" class="node">
<title>R</title>
<ellipse fill="#e5e5e5" stroke="black" cx="187" cy="-18" rx="18" ry="18"/>
<text text-anchor="middle" x="187" y="-15.5" font-family="Arial" font-size="10.00">R</text>
</g>
<!-- B&#45;&gt;R -->
<g id="edge3" class="edge">
<title>B&#45;&gt;R</title>
<path fill="none" stroke="black" d="M125.02,-51.7C135.63,-45.83 150.08,-37.85 162.26,-31.12"/>
<polygon fill="black" stroke="black" points="163.96,-34.18 171.02,-26.28 160.57,-28.05 163.96,-34.18"/>
<text text-anchor="middle" x="148" y="-44" font-family="Arial" font-size="10.00">b</text>
</g>
<!-- R&#45;&gt;END -->
<g id="edge4" class="edge">
<title>R&#45;&gt;END</title>
<path fill="none" stroke="black" d="M204.07,-24.75C217.08,-30.21 235.9,-38.12 252.43,-45.06"/>
<polygon fill="black" stroke="black" points="251.26,-48.36 261.83,-49.01 253.97,-41.91 251.26,-48.36"/>
<text text-anchor="middle" x="231.5" y="-42" font-family="Arial" font-size="10.00">b, z</text>
</g>
<!-- R&#45;&gt;R -->
<g id="edge5" class="edge">
<title>R&#45;&gt;R</title>
<path fill="none" stroke="black" d="M180.27,-35.04C178.89,-44.86 181.14,-54 187,-54 190.66,-54 192.92,-50.43 193.75,-45.35"/>
<polygon fill="black" stroke="black" points="197.25,-45.03 193.73,-35.04 190.25,-45.04 197.25,-45.03"/>
<text text-anchor="middle" x="187" y="-57" font-family="Arial" font-size="10.00">b, z</text>
</g>
</g>
</svg>
