<?xml version="1.0" encoding="UTF-8" standalone="no"?>
<!DOCTYPE svg PUBLIC "-//W3C//DTD SVG 1.1//EN"
 "http://www.w3.org/Graphics/SVG/1.1/DTD/svg11.dtd">
<!-- Generated by graphviz version 2.49.3 (20211023.0002)
 -->
<!-- Title: finite_state_machine Pages: 1 -->
<svg width="244pt" height="115pt"
 viewBox="0.00 0.00 243.87 115.00" xmlns="http://www.w3.org/2000/svg" xmlns:xlink="http://www.w3.org/1999/xlink">
<g id="graph0" class="graph" transform="scale(1 1) rotate(0) translate(4 111)">
<title>finite_state_machine</title>
<polygon fill="white" stroke="transparent" points="-4,4 -4,-111 239.87,-111 239.87,4 -4,4"/>
<!-- faOfG: -->
<g id="node1" class="node">
<title>faOfG:</title>
<text text-anchor="middle" x="27" y="-14.9" font-family="Arial" font-size="12.00">faOfG:</text>
</g>
<!-- START -->
<g id="node2" class="node">
<title>START</title>
<ellipse fill="#e5e5e5" stroke="black" cx="27" cy="-56" rx="1.8" ry="1.8"/>
</g>
<!-- B -->
<g id="node4" class="node">
<title>B</title>
<ellipse fill="#e5e5e5" stroke="black" cx="109" cy="-56" rx="18" ry="18"/>
<text text-anchor="middle" x="109" y="-53.5" font-family="Arial" font-size="10.00">B</text>
</g>
<!-- START&#45;&gt;B -->
<g id="edge1" class="edge">
<title>START&#45;&gt;B</title>
<path fill="none" stroke="black" d="M28.9,-56C33.99,-56 59.68,-56 80.43,-56"/>
<polygon fill="black" stroke="black" points="80.69,-59.5 90.69,-56 80.69,-52.5 80.69,-59.5"/>
</g>
<!-- END+R -->
<g id="node3" class="node">
<title>END+R</title>
<ellipse fill="#e5e5e5" stroke="black" cx="202.43" cy="-56" rx="29.37" ry="18"/>
<ellipse fill="none" stroke="black" cx="202.43" cy="-56" rx="33.37" ry="22"/>
<text text-anchor="middle" x="202.43" y="-53.5" font-family="Arial" font-size="10.00">END+R</text>
</g>
<!-- END+R&#45;&gt;END+R -->
<g id="edge3" class="edge">
<title>END+R&#45;&gt;END+R</title>
<path fill="none" stroke="black" d="M192.51,-77.4C191.43,-87.33 194.73,-96 202.43,-96 207.25,-96 210.34,-92.61 211.72,-87.65"/>
<polygon fill="black" stroke="black" points="215.23,-87.6 212.36,-77.4 208.25,-87.16 215.23,-87.6"/>
<text text-anchor="middle" x="202.43" y="-99" font-family="Arial" font-size="10.00">b, z</text>
</g>
<!-- B&#45;&gt;END+R -->
<g id="edge2" class="edge">
<title>B&#45;&gt;END+R</title>
<path fill="none" stroke="black" d="M127.2,-56C136.15,-56 147.53,-56 158.67,-56"/>
<polygon fill="black" stroke="black" points="158.76,-59.5 168.76,-56 158.76,-52.5 158.76,-59.5"/>
<text text-anchor="middle" x="148" y="-59" font-family="Arial" font-size="10.00">b</text>
</g>
</g>
</svg>
