<?xml version="1.0" encoding="UTF-8" standalone="no"?>
<!DOCTYPE svg PUBLIC "-//W3C//DTD SVG 1.1//EN"
 "http://www.w3.org/Graphics/SVG/1.1/DTD/svg11.dtd">
<!-- Generated by graphviz version 2.49.3 (20211023.0002)
 -->
<!-- Title: finite_state_machine Pages: 1 -->
<svg width="343pt" height="152pt"
 viewBox="0.00 0.00 343.00 152.00" xmlns="http://www.w3.org/2000/svg" xmlns:xlink="http://www.w3.org/1999/xlink">
<g id="graph0" class="graph" transform="scale(1 1) rotate(0) translate(4 148)">
<title>finite_state_machine</title>
<polygon fill="white" stroke="transparent" points="-4,4 -4,-148 339,-148 339,4 -4,4"/>
<!-- faOfG: -->
<g id="node1" class="node">
<title>faOfG:</title>
<text text-anchor="middle" x="27" y="-25.9" font-family="Arial" font-size="12.00">faOfG:</text>
</g>
<!-- START -->
<g id="node2" class="node">
<title>START</title>
<ellipse fill="#e5e5e5" stroke="black" cx="27" cy="-67" rx="1.8" ry="1.8"/>
</g>
<!-- S -->
<g id="node4" class="node">
<title>S</title>
<ellipse fill="#e5e5e5" stroke="black" cx="122" cy="-67" rx="27" ry="18"/>
<ellipse fill="none" stroke="black" cx="122" cy="-67" rx="31" ry="22"/>
<text text-anchor="middle" x="122" y="-64.5" font-family="Arial" font-size="10.00">S</text>
</g>
<!-- START&#45;&gt;S -->
<g id="edge1" class="edge">
<title>START&#45;&gt;S</title>
<path fill="none" stroke="black" d="M29.04,-67C34.31,-67 58.53,-67 80.79,-67"/>
<polygon fill="black" stroke="black" points="80.81,-70.5 90.81,-67 80.81,-63.5 80.81,-70.5"/>
</g>
<!-- END -->
<g id="node3" class="node">
<title>END</title>
<ellipse fill="#e5e5e5" stroke="black" cx="304" cy="-81" rx="27" ry="18"/>
<ellipse fill="none" stroke="black" cx="304" cy="-81" rx="31" ry="22"/>
<text text-anchor="middle" x="304" y="-78.5" font-family="Arial" font-size="10.00">END</text>
</g>
<!-- A -->
<g id="node5" class="node">
<title>A</title>
<ellipse fill="#e5e5e5" stroke="black" cx="213" cy="-97" rx="18" ry="18"/>
<text text-anchor="middle" x="213" y="-94.5" font-family="Arial" font-size="10.00">A</text>
</g>
<!-- S&#45;&gt;A -->
<g id="edge2" class="edge">
<title>S&#45;&gt;A</title>
<path fill="none" stroke="black" d="M150.19,-76.16C161.61,-80.02 174.85,-84.48 186.13,-88.28"/>
<polygon fill="black" stroke="black" points="185.24,-91.67 195.84,-91.55 187.48,-85.04 185.24,-91.67"/>
<text text-anchor="middle" x="174" y="-88" font-family="Arial" font-size="10.00">b</text>
</g>
<!-- B -->
<g id="node6" class="node">
<title>B</title>
<ellipse fill="#e5e5e5" stroke="black" cx="213" cy="-40" rx="18" ry="18"/>
<text text-anchor="middle" x="213" y="-37.5" font-family="Arial" font-size="10.00">B</text>
</g>
<!-- S&#45;&gt;B -->
<g id="edge3" class="edge">
<title>S&#45;&gt;B</title>
<path fill="none" stroke="black" d="M150.67,-58.61C161.81,-55.23 174.59,-51.35 185.6,-48.01"/>
<polygon fill="black" stroke="black" points="186.94,-51.26 195.49,-45.01 184.91,-44.56 186.94,-51.26"/>
<text text-anchor="middle" x="174" y="-55" font-family="Arial" font-size="10.00">a</text>
</g>
<!-- A&#45;&gt;END -->
<g id="edge7" class="edge">
<title>A&#45;&gt;END</title>
<path fill="none" stroke="black" d="M231.16,-93.92C240.46,-92.24 252.36,-90.1 263.78,-88.05"/>
<polygon fill="black" stroke="black" points="264.4,-91.49 273.63,-86.28 263.17,-84.61 264.4,-91.49"/>
<text text-anchor="middle" x="252" y="-94" font-family="Arial" font-size="10.00">b</text>
</g>
<!-- A&#45;&gt;A -->
<g id="edge6" class="edge">
<title>A&#45;&gt;A</title>
<path fill="none" stroke="black" d="M206.27,-114.04C204.89,-123.86 207.14,-133 213,-133 216.66,-133 218.92,-129.43 219.75,-124.35"/>
<polygon fill="black" stroke="black" points="223.25,-124.03 219.73,-114.04 216.25,-124.04 223.25,-124.03"/>
<text text-anchor="middle" x="213" y="-136" font-family="Arial" font-size="10.00">b</text>
</g>
<!-- B&#45;&gt;END -->
<g id="edge5" class="edge">
<title>B&#45;&gt;END</title>
<path fill="none" stroke="black" d="M229.91,-47.33C240.53,-52.22 254.92,-58.85 268.13,-64.93"/>
<polygon fill="black" stroke="black" points="266.91,-68.23 277.46,-69.23 269.84,-61.87 266.91,-68.23"/>
<text text-anchor="middle" x="252" y="-62" font-family="Arial" font-size="10.00">b</text>
</g>
<!-- C -->
<g id="node7" class="node">
<title>C</title>
<ellipse fill="#e5e5e5" stroke="black" cx="304" cy="-18" rx="18" ry="18"/>
<text text-anchor="middle" x="304" y="-15.5" font-family="Arial" font-size="10.00">C</text>
</g>
<!-- B&#45;&gt;C -->
<g id="edge4" class="edge">
<title>B&#45;&gt;C</title>
<path fill="none" stroke="black" d="M230.74,-35.86C243.54,-32.7 261.45,-28.27 276.24,-24.62"/>
<polygon fill="black" stroke="black" points="277.47,-27.92 286.33,-22.12 275.79,-21.12 277.47,-27.92"/>
<text text-anchor="middle" x="252" y="-34" font-family="Arial" font-size="10.00">b</text>
</g>
<!-- C&#45;&gt;B -->
<g id="edge8" class="edge">
<title>C&#45;&gt;B</title>
<path fill="none" stroke="black" d="M286.08,-14.53C275.24,-13 261.01,-12.28 249,-16 244.24,-17.48 239.55,-19.85 235.22,-22.54"/>
<polygon fill="black" stroke="black" points="233.14,-19.73 226.95,-28.33 237.15,-25.46 233.14,-19.73"/>
<text text-anchor="middle" x="252" y="-19" font-family="Arial" font-size="10.00">a</text>
</g>
</g>
</svg>
