<?xml version="1.0" encoding="UTF-8" standalone="no"?>
<!DOCTYPE svg PUBLIC "-//W3C//DTD SVG 1.1//EN"
 "http://www.w3.org/Graphics/SVG/1.1/DTD/svg11.dtd">
<!-- Generated by graphviz version 2.49.3 (20211023.0002)
 -->
<!-- Title: finite_state_machine Pages: 1 -->
<svg width="562pt" height="115pt"
 viewBox="0.00 0.00 561.97 115.00" xmlns="http://www.w3.org/2000/svg" xmlns:xlink="http://www.w3.org/1999/xlink">
<g id="graph0" class="graph" transform="scale(1 1) rotate(0) translate(4 111)">
<title>finite_state_machine</title>
<polygon fill="white" stroke="transparent" points="-4,4 -4,-111 557.97,-111 557.97,4 -4,4"/>
<!-- minDfaOfNfa: -->
<g id="node1" class="node">
<title>minDfaOfNfa:</title>
<text text-anchor="middle" x="43.5" y="-14.9" font-family="Arial" font-size="12.00">minDfaOfNfa:</text>
</g>
<!-- START -->
<g id="node2" class="node">
<title>START</title>
<ellipse fill="#e5e5e5" stroke="black" cx="43.5" cy="-56" rx="1.8" ry="1.8"/>
</g>
<!-- 1 -->
<g id="node5" class="node">
<title>1</title>
<ellipse fill="#e5e5e5" stroke="black" cx="151" cy="-56" rx="27" ry="18"/>
<text text-anchor="middle" x="151" y="-53.5" font-family="Arial" font-size="10.00">1</text>
</g>
<!-- START&#45;&gt;1 -->
<g id="edge1" class="edge">
<title>START&#45;&gt;1</title>
<path fill="none" stroke="black" d="M45.68,-56C52.41,-56 86.44,-56 113.84,-56"/>
<polygon fill="black" stroke="black" points="113.94,-59.5 123.94,-56 113.94,-52.5 113.94,-59.5"/>
</g>
<!-- (1+3+4)+(1+4)+(2+4) -->
<g id="node3" class="node">
<title>(1+3+4)+(1+4)+(2+4)</title>
<ellipse fill="#e5e5e5" stroke="black" cx="486.99" cy="-56" rx="62.97" ry="18"/>
<ellipse fill="none" stroke="black" cx="486.99" cy="-56" rx="66.97" ry="22"/>
<text text-anchor="middle" x="486.99" y="-53.5" font-family="Arial" font-size="10.00">(1+3+4)+(1+4)+(2+4)</text>
</g>
<!-- (1+3+4)+(1+4)+(2+4)&#45;&gt;(1+3+4)+(1+4)+(2+4) -->
<g id="edge8" class="edge">
<title>(1+3+4)+(1+4)+(2+4)&#45;&gt;(1+3+4)+(1+4)+(2+4)</title>
<path fill="none" stroke="black" d="M471.18,-77.4C469.46,-87.33 474.73,-96 486.99,-96 494.65,-96 499.58,-92.61 501.78,-87.65"/>
<polygon fill="black" stroke="black" points="505.29,-87.69 502.79,-77.4 498.33,-87.01 505.29,-87.69"/>
<text text-anchor="middle" x="486.99" y="-99" font-family="Arial" font-size="10.00">a, b</text>
</g>
<!-- 2 -->
<g id="node4" class="node">
<title>2</title>
<ellipse fill="#e5e5e5" stroke="black" cx="251" cy="-56" rx="27" ry="18"/>
<ellipse fill="none" stroke="black" cx="251" cy="-56" rx="31" ry="22"/>
<text text-anchor="middle" x="251" y="-53.5" font-family="Arial" font-size="10.00">2</text>
</g>
<!-- 2&#45;&gt;2 -->
<g id="edge5" class="edge">
<title>2&#45;&gt;2</title>
<path fill="none" stroke="black" d="M241.49,-76.99C240.31,-87.09 243.48,-96 251,-96 255.81,-96 258.85,-92.34 260.09,-87.06"/>
<polygon fill="black" stroke="black" points="263.59,-87.13 260.51,-76.99 256.6,-86.84 263.59,-87.13"/>
<text text-anchor="middle" x="251" y="-99" font-family="Arial" font-size="10.00">a</text>
</g>
<!-- 1+3 -->
<g id="node6" class="node">
<title>1+3</title>
<ellipse fill="#e5e5e5" stroke="black" cx="351" cy="-56" rx="27" ry="18"/>
<text text-anchor="middle" x="351" y="-53.5" font-family="Arial" font-size="10.00">1+3</text>
</g>
<!-- 2&#45;&gt;1+3 -->
<g id="edge4" class="edge">
<title>2&#45;&gt;1+3</title>
<path fill="none" stroke="black" d="M282.2,-56C292.16,-56 303.33,-56 313.69,-56"/>
<polygon fill="black" stroke="black" points="313.71,-59.5 323.71,-56 313.71,-52.5 313.71,-59.5"/>
<text text-anchor="middle" x="303" y="-59" font-family="Arial" font-size="10.00">b</text>
</g>
<!-- 1&#45;&gt;2 -->
<g id="edge3" class="edge">
<title>1&#45;&gt;2</title>
<path fill="none" stroke="black" d="M178,-56C187.72,-56 198.99,-56 209.69,-56"/>
<polygon fill="black" stroke="black" points="209.7,-59.5 219.7,-56 209.7,-52.5 209.7,-59.5"/>
<text text-anchor="middle" x="199" y="-59" font-family="Arial" font-size="10.00">a</text>
</g>
<!-- 1&#45;&gt;1 -->
<g id="edge2" class="edge">
<title>1&#45;&gt;1</title>
<path fill="none" stroke="black" d="M143.14,-73.41C141.68,-83.09 144.3,-92 151,-92 155.19,-92 157.78,-88.52 158.78,-83.54"/>
<polygon fill="black" stroke="black" points="162.28,-83.44 158.86,-73.41 155.28,-83.38 162.28,-83.44"/>
<text text-anchor="middle" x="151" y="-95" font-family="Arial" font-size="10.00">b</text>
</g>
<!-- 1+3&#45;&gt;(1+3+4)+(1+4)+(2+4) -->
<g id="edge6" class="edge">
<title>1+3&#45;&gt;(1+3+4)+(1+4)+(2+4)</title>
<path fill="none" stroke="black" d="M378.15,-56C387.46,-56 398.47,-56 409.83,-56"/>
<polygon fill="black" stroke="black" points="409.88,-59.5 419.88,-56 409.88,-52.5 409.88,-59.5"/>
<text text-anchor="middle" x="399" y="-59" font-family="Arial" font-size="10.00">b</text>
</g>
<!-- 1+3&#45;&gt;2 -->
<g id="edge7" class="edge">
<title>1+3&#45;&gt;2</title>
<path fill="none" stroke="black" d="M327.53,-46.76C320.73,-44.39 313.17,-42.19 306,-41 299.91,-39.99 293.53,-40.4 287.36,-41.59"/>
<polygon fill="black" stroke="black" points="286.09,-38.31 277.3,-44.22 287.86,-45.08 286.09,-38.31"/>
<text text-anchor="middle" x="303" y="-44" font-family="Arial" font-size="10.00">a</text>
</g>
</g>
</svg>
