<?xml version="1.0" encoding="UTF-8" standalone="no"?>
<!DOCTYPE svg PUBLIC "-//W3C//DTD SVG 1.1//EN"
 "http://www.w3.org/Graphics/SVG/1.1/DTD/svg11.dtd">
<!-- Generated by graphviz version 2.49.3 (20211023.0002)
 -->
<!-- Title: finite_state_machine Pages: 1 -->
<svg width="325pt" height="115pt"
 viewBox="0.00 0.00 325.00 115.00" xmlns="http://www.w3.org/2000/svg" xmlns:xlink="http://www.w3.org/1999/xlink">
<g id="graph0" class="graph" transform="scale(1 1) rotate(0) translate(4 111)">
<title>finite_state_machine</title>
<polygon fill="white" stroke="transparent" points="-4,4 -4,-111 321,-111 321,4 -4,4"/>
<!-- mooreDfa: -->
<g id="node1" class="node">
<title>mooreDfa:</title>
<text text-anchor="middle" x="36" y="-14.9" font-family="Arial" font-size="12.00">mooreDfa:</text>
</g>
<!-- START -->
<g id="node2" class="node">
<title>START</title>
<ellipse fill="#e5e5e5" stroke="black" cx="36" cy="-56" rx="1.8" ry="1.8"/>
</g>
<!-- S -->
<g id="node5" class="node">
<title>S</title>
<ellipse fill="#e5e5e5" stroke="black" cx="127" cy="-56" rx="18" ry="18"/>
<text text-anchor="middle" x="127" y="-53.5" font-family="Arial" font-size="10.00">S</text>
</g>
<!-- START&#45;&gt;S -->
<g id="edge1" class="edge">
<title>START&#45;&gt;S</title>
<path fill="none" stroke="black" d="M38,-56C43.93,-56 75.02,-56 98.58,-56"/>
<polygon fill="black" stroke="black" points="98.76,-59.5 108.76,-56 98.76,-52.5 98.76,-59.5"/>
</g>
<!-- B -->
<g id="node3" class="node">
<title>B</title>
<ellipse fill="#e5e5e5" stroke="black" cx="209" cy="-56" rx="18" ry="18"/>
<ellipse fill="none" stroke="black" cx="209" cy="-56" rx="22" ry="22"/>
<text text-anchor="middle" x="209" y="-53.5" font-family="Arial" font-size="10.00">B</text>
</g>
<!-- B&#45;&gt;B -->
<g id="edge3" class="edge">
<title>B&#45;&gt;B</title>
<path fill="none" stroke="black" d="M201.32,-76.99C200.37,-87.09 202.93,-96 209,-96 212.89,-96 215.34,-92.34 216.35,-87.06"/>
<polygon fill="black" stroke="black" points="219.85,-87.1 216.68,-76.99 212.85,-86.87 219.85,-87.1"/>
<text text-anchor="middle" x="209" y="-99" font-family="Arial" font-size="10.00">b</text>
</g>
<!-- Z -->
<g id="node4" class="node">
<title>Z</title>
<ellipse fill="#e5e5e5" stroke="black" cx="295" cy="-56" rx="18" ry="18"/>
<ellipse fill="none" stroke="black" cx="295" cy="-56" rx="22" ry="22"/>
<text text-anchor="middle" x="295" y="-53.5" font-family="Arial" font-size="10.00">Z</text>
</g>
<!-- B&#45;&gt;Z -->
<g id="edge4" class="edge">
<title>B&#45;&gt;Z</title>
<path fill="none" stroke="black" d="M231.2,-56C240.75,-56 252.22,-56 262.73,-56"/>
<polygon fill="black" stroke="black" points="262.81,-59.5 272.81,-56 262.81,-52.5 262.81,-59.5"/>
<text text-anchor="middle" x="252" y="-59" font-family="Arial" font-size="10.00">z</text>
</g>
<!-- Z&#45;&gt;B -->
<g id="edge5" class="edge">
<title>Z&#45;&gt;B</title>
<path fill="none" stroke="black" d="M274.57,-46.92C268.44,-44.5 261.56,-42.22 255,-41 249.43,-39.97 243.61,-40.57 238.07,-42.01"/>
<polygon fill="black" stroke="black" points="236.83,-38.73 228.52,-45.31 239.12,-45.35 236.83,-38.73"/>
<text text-anchor="middle" x="252" y="-44" font-family="Arial" font-size="10.00">b</text>
</g>
<!-- Z&#45;&gt;Z -->
<g id="edge6" class="edge">
<title>Z&#45;&gt;Z</title>
<path fill="none" stroke="black" d="M287.32,-76.99C286.37,-87.09 288.93,-96 295,-96 298.89,-96 301.34,-92.34 302.35,-87.06"/>
<polygon fill="black" stroke="black" points="305.85,-87.1 302.68,-76.99 298.85,-86.87 305.85,-87.1"/>
<text text-anchor="middle" x="295" y="-99" font-family="Arial" font-size="10.00">z</text>
</g>
<!-- S&#45;&gt;B -->
<g id="edge2" class="edge">
<title>S&#45;&gt;B</title>
<path fill="none" stroke="black" d="M145.36,-56C154.53,-56 166.06,-56 176.72,-56"/>
<polygon fill="black" stroke="black" points="176.98,-59.5 186.98,-56 176.98,-52.5 176.98,-59.5"/>
<text text-anchor="middle" x="166" y="-59" font-family="Arial" font-size="10.00">b</text>
</g>
</g>
</svg>
