<?xml version="1.0" encoding="UTF-8" standalone="no"?>
<!DOCTYPE svg PUBLIC "-//W3C//DTD SVG 1.1//EN"
 "http://www.w3.org/Graphics/SVG/1.1/DTD/svg11.dtd">
<!-- Generated by graphviz version 2.49.3 (20211023.0002)
 -->
<!-- Title: finite_state_machine Pages: 1 -->
<svg width="385pt" height="115pt"
 viewBox="0.00 0.00 385.00 115.00" xmlns="http://www.w3.org/2000/svg" xmlns:xlink="http://www.w3.org/1999/xlink">
<g id="graph0" class="graph" transform="scale(1 1) rotate(0) translate(4 111)">
<title>finite_state_machine</title>
<polygon fill="white" stroke="transparent" points="-4,4 -4,-111 381,-111 381,4 -4,4"/>
<!-- nfa: -->
<g id="node1" class="node">
<title>nfa:</title>
<text text-anchor="middle" x="27" y="-14.9" font-family="Arial" font-size="12.00">nfa:</text>
</g>
<!-- START -->
<g id="node2" class="node">
<title>START</title>
<ellipse fill="#e5e5e5" stroke="black" cx="27" cy="-56" rx="1.8" ry="1.8"/>
</g>
<!-- 1 -->
<g id="node5" class="node">
<title>1</title>
<ellipse fill="#e5e5e5" stroke="black" cx="109" cy="-56" rx="18" ry="18"/>
<text text-anchor="middle" x="109" y="-53.5" font-family="Arial" font-size="10.00">1</text>
</g>
<!-- START&#45;&gt;1 -->
<g id="edge1" class="edge">
<title>START&#45;&gt;1</title>
<path fill="none" stroke="black" d="M28.9,-56C33.99,-56 59.68,-56 80.43,-56"/>
<polygon fill="black" stroke="black" points="80.69,-59.5 90.69,-56 80.69,-52.5 80.69,-59.5"/>
</g>
<!-- 2 -->
<g id="node3" class="node">
<title>2</title>
<ellipse fill="#e5e5e5" stroke="black" cx="191" cy="-56" rx="18" ry="18"/>
<ellipse fill="none" stroke="black" cx="191" cy="-56" rx="22" ry="22"/>
<text text-anchor="middle" x="191" y="-53.5" font-family="Arial" font-size="10.00">2</text>
</g>
<!-- 2&#45;&gt;2 -->
<g id="edge5" class="edge">
<title>2&#45;&gt;2</title>
<path fill="none" stroke="black" d="M183.32,-76.99C182.37,-87.09 184.93,-96 191,-96 194.89,-96 197.34,-92.34 198.35,-87.06"/>
<polygon fill="black" stroke="black" points="201.85,-87.1 198.68,-76.99 194.85,-86.87 201.85,-87.1"/>
<text text-anchor="middle" x="191" y="-99" font-family="Arial" font-size="10.00">a</text>
</g>
<!-- 2&#45;&gt;1 -->
<g id="edge4" class="edge">
<title>2&#45;&gt;1</title>
<path fill="none" stroke="black" d="M171.44,-45.15C163.43,-41.69 153.87,-39.18 145,-41 141.53,-41.71 137.97,-42.79 134.53,-44.04"/>
<polygon fill="black" stroke="black" points="133.14,-40.82 125.24,-47.88 135.82,-47.29 133.14,-40.82"/>
<text text-anchor="middle" x="148" y="-44" font-family="Arial" font-size="10.00">b</text>
</g>
<!-- 3 -->
<g id="node6" class="node">
<title>3</title>
<ellipse fill="#e5e5e5" stroke="black" cx="273" cy="-56" rx="18" ry="18"/>
<text text-anchor="middle" x="273" y="-53.5" font-family="Arial" font-size="10.00">3</text>
</g>
<!-- 2&#45;&gt;3 -->
<g id="edge6" class="edge">
<title>2&#45;&gt;3</title>
<path fill="none" stroke="black" d="M213.02,-56C222.71,-56 234.33,-56 244.69,-56"/>
<polygon fill="black" stroke="black" points="244.89,-59.5 254.89,-56 244.89,-52.5 244.89,-59.5"/>
<text text-anchor="middle" x="234" y="-59" font-family="Arial" font-size="10.00">b</text>
</g>
<!-- 4 -->
<g id="node4" class="node">
<title>4</title>
<ellipse fill="#e5e5e5" stroke="black" cx="355" cy="-56" rx="18" ry="18"/>
<ellipse fill="none" stroke="black" cx="355" cy="-56" rx="22" ry="22"/>
<text text-anchor="middle" x="355" y="-53.5" font-family="Arial" font-size="10.00">4</text>
</g>
<!-- 4&#45;&gt;4 -->
<g id="edge9" class="edge">
<title>4&#45;&gt;4</title>
<path fill="none" stroke="black" d="M347.32,-76.99C346.37,-87.09 348.93,-96 355,-96 358.89,-96 361.34,-92.34 362.35,-87.06"/>
<polygon fill="black" stroke="black" points="365.85,-87.1 362.68,-76.99 358.85,-86.87 365.85,-87.1"/>
<text text-anchor="middle" x="355" y="-99" font-family="Arial" font-size="10.00">a, b</text>
</g>
<!-- 1&#45;&gt;2 -->
<g id="edge3" class="edge">
<title>1&#45;&gt;2</title>
<path fill="none" stroke="black" d="M127.36,-56C136.53,-56 148.06,-56 158.72,-56"/>
<polygon fill="black" stroke="black" points="158.98,-59.5 168.98,-56 158.98,-52.5 158.98,-59.5"/>
<text text-anchor="middle" x="148" y="-59" font-family="Arial" font-size="10.00">a</text>
</g>
<!-- 1&#45;&gt;1 -->
<g id="edge2" class="edge">
<title>1&#45;&gt;1</title>
<path fill="none" stroke="black" d="M102.62,-73.04C101.32,-82.86 103.45,-92 109,-92 112.47,-92 114.6,-88.43 115.4,-83.35"/>
<polygon fill="black" stroke="black" points="118.9,-83.03 115.38,-73.04 111.9,-83.04 118.9,-83.03"/>
<text text-anchor="middle" x="109" y="-95" font-family="Arial" font-size="10.00">b</text>
</g>
<!-- 3&#45;&gt;2 -->
<g id="edge7" class="edge">
<title>3&#45;&gt;2</title>
<path fill="none" stroke="black" d="M256.76,-47.88C250.77,-45.12 243.73,-42.38 237,-41 231.45,-39.86 225.64,-40.42 220.11,-41.84"/>
<polygon fill="black" stroke="black" points="218.86,-38.57 210.56,-45.15 221.15,-45.18 218.86,-38.57"/>
<text text-anchor="middle" x="234" y="-44" font-family="Arial" font-size="10.00">a</text>
</g>
<!-- 3&#45;&gt;4 -->
<g id="edge8" class="edge">
<title>3&#45;&gt;4</title>
<path fill="none" stroke="black" d="M291.36,-56C300.53,-56 312.06,-56 322.72,-56"/>
<polygon fill="black" stroke="black" points="322.98,-59.5 332.98,-56 322.98,-52.5 322.98,-59.5"/>
<text text-anchor="middle" x="312" y="-59" font-family="Arial" font-size="10.00">b</text>
</g>
</g>
</svg>
