<?xml version="1.0" encoding="UTF-8" standalone="no"?>
<!DOCTYPE svg PUBLIC "-//W3C//DTD SVG 1.1//EN"
 "http://www.w3.org/Graphics/SVG/1.1/DTD/svg11.dtd">
<!-- Generated by graphviz version 2.49.3 (20211023.0002)
 -->
<!-- Title: finite_state_machine Pages: 1 -->
<svg width="435pt" height="115pt"
 viewBox="0.00 0.00 435.00 115.00" xmlns="http://www.w3.org/2000/svg" xmlns:xlink="http://www.w3.org/1999/xlink">
<g id="graph0" class="graph" transform="scale(1 1) rotate(0) translate(4 111)">
<title>finite_state_machine</title>
<polygon fill="white" stroke="transparent" points="-4,4 -4,-111 431,-111 431,4 -4,4"/>
<!-- renMinDfaOfNfa: -->
<g id="node1" class="node">
<title>renMinDfaOfNfa:</title>
<text text-anchor="middle" x="52" y="-14.9" font-family="Arial" font-size="12.00">renMinDfaOfNfa:</text>
</g>
<!-- START -->
<g id="node2" class="node">
<title>START</title>
<ellipse fill="#e5e5e5" stroke="black" cx="52" cy="-56" rx="1.8" ry="1.8"/>
</g>
<!-- 0 -->
<g id="node5" class="node">
<title>0</title>
<ellipse fill="#e5e5e5" stroke="black" cx="159" cy="-56" rx="18" ry="18"/>
<text text-anchor="middle" x="159" y="-53.5" font-family="Arial" font-size="10.00">0</text>
</g>
<!-- START&#45;&gt;0 -->
<g id="edge1" class="edge">
<title>START&#45;&gt;0</title>
<path fill="none" stroke="black" d="M54.18,-56C61.61,-56 102.56,-56 130.75,-56"/>
<polygon fill="black" stroke="black" points="130.84,-59.5 140.84,-56 130.84,-52.5 130.84,-59.5"/>
</g>
<!-- 1 -->
<g id="node3" class="node">
<title>1</title>
<ellipse fill="#e5e5e5" stroke="black" cx="241" cy="-56" rx="18" ry="18"/>
<ellipse fill="none" stroke="black" cx="241" cy="-56" rx="22" ry="22"/>
<text text-anchor="middle" x="241" y="-53.5" font-family="Arial" font-size="10.00">1</text>
</g>
<!-- 1&#45;&gt;1 -->
<g id="edge4" class="edge">
<title>1&#45;&gt;1</title>
<path fill="none" stroke="black" d="M233.32,-76.99C232.37,-87.09 234.93,-96 241,-96 244.89,-96 247.34,-92.34 248.35,-87.06"/>
<polygon fill="black" stroke="black" points="251.85,-87.1 248.68,-76.99 244.85,-86.87 251.85,-87.1"/>
<text text-anchor="middle" x="241" y="-99" font-family="Arial" font-size="10.00">a</text>
</g>
<!-- 2 -->
<g id="node6" class="node">
<title>2</title>
<ellipse fill="#e5e5e5" stroke="black" cx="323" cy="-56" rx="18" ry="18"/>
<text text-anchor="middle" x="323" y="-53.5" font-family="Arial" font-size="10.00">2</text>
</g>
<!-- 1&#45;&gt;2 -->
<g id="edge5" class="edge">
<title>1&#45;&gt;2</title>
<path fill="none" stroke="black" d="M263.02,-56C272.71,-56 284.33,-56 294.69,-56"/>
<polygon fill="black" stroke="black" points="294.89,-59.5 304.89,-56 294.89,-52.5 294.89,-59.5"/>
<text text-anchor="middle" x="284" y="-59" font-family="Arial" font-size="10.00">b</text>
</g>
<!-- 3 -->
<g id="node4" class="node">
<title>3</title>
<ellipse fill="#e5e5e5" stroke="black" cx="405" cy="-56" rx="18" ry="18"/>
<ellipse fill="none" stroke="black" cx="405" cy="-56" rx="22" ry="22"/>
<text text-anchor="middle" x="405" y="-53.5" font-family="Arial" font-size="10.00">3</text>
</g>
<!-- 3&#45;&gt;3 -->
<g id="edge8" class="edge">
<title>3&#45;&gt;3</title>
<path fill="none" stroke="black" d="M397.32,-76.99C396.37,-87.09 398.93,-96 405,-96 408.89,-96 411.34,-92.34 412.35,-87.06"/>
<polygon fill="black" stroke="black" points="415.85,-87.1 412.68,-76.99 408.85,-86.87 415.85,-87.1"/>
<text text-anchor="middle" x="405" y="-99" font-family="Arial" font-size="10.00">a, b</text>
</g>
<!-- 0&#45;&gt;1 -->
<g id="edge3" class="edge">
<title>0&#45;&gt;1</title>
<path fill="none" stroke="black" d="M177.36,-56C186.53,-56 198.06,-56 208.72,-56"/>
<polygon fill="black" stroke="black" points="208.98,-59.5 218.98,-56 208.98,-52.5 208.98,-59.5"/>
<text text-anchor="middle" x="198" y="-59" font-family="Arial" font-size="10.00">a</text>
</g>
<!-- 0&#45;&gt;0 -->
<g id="edge2" class="edge">
<title>0&#45;&gt;0</title>
<path fill="none" stroke="black" d="M152.62,-73.04C151.32,-82.86 153.45,-92 159,-92 162.47,-92 164.6,-88.43 165.4,-83.35"/>
<polygon fill="black" stroke="black" points="168.9,-83.03 165.38,-73.04 161.9,-83.04 168.9,-83.03"/>
<text text-anchor="middle" x="159" y="-95" font-family="Arial" font-size="10.00">b</text>
</g>
<!-- 2&#45;&gt;1 -->
<g id="edge6" class="edge">
<title>2&#45;&gt;1</title>
<path fill="none" stroke="black" d="M306.76,-47.88C300.77,-45.12 293.73,-42.38 287,-41 281.45,-39.86 275.64,-40.42 270.11,-41.84"/>
<polygon fill="black" stroke="black" points="268.86,-38.57 260.56,-45.15 271.15,-45.18 268.86,-38.57"/>
<text text-anchor="middle" x="284" y="-44" font-family="Arial" font-size="10.00">a</text>
</g>
<!-- 2&#45;&gt;3 -->
<g id="edge7" class="edge">
<title>2&#45;&gt;3</title>
<path fill="none" stroke="black" d="M341.36,-56C350.53,-56 362.06,-56 372.72,-56"/>
<polygon fill="black" stroke="black" points="372.98,-59.5 382.98,-56 372.98,-52.5 372.98,-59.5"/>
<text text-anchor="middle" x="362" y="-59" font-family="Arial" font-size="10.00">b</text>
</g>
</g>
</svg>
